<svg width="40" height="26" viewBox="0 0 40 26" fill="none" xmlns="http://www.w3.org/2000/svg">
<path d="M0.000262976 12.6336C0.00153116 12.2912 0.147385 11.9652 0.402732 11.7365L13.13 0.310112C13.3617 0.102116 13.6504 -0.000192642 13.9396 -0.000192642C14.2719 -0.000192642 14.6025 0.135511 14.8422 0.402277C15.2894 0.899862 15.2484 1.66634 14.75 2.11353L4.27835 11.5147H31.5154C34.8573 11.5147 37.576 8.796 37.576 5.45411V3.63583C37.576 2.9666 38.1192 2.42381 38.788 2.42381C39.4572 2.42381 40 2.96705 40 3.63583V5.45411C40 10.1327 36.1939 13.9387 31.5154 13.9387L4.43744 13.9392L14.7556 23.3463C15.2502 23.7974 15.2858 24.5638 14.8343 25.0589C14.3832 25.5535 13.6172 25.5886 13.1217 25.1375L0.39443 13.5336C0.142471 13.3032 -0.000840447 12.9764 3.70833e-06 12.6336L0.000262976 12.6336Z" fill="white"/>
</svg>
