<svg width="13" height="14" viewBox="0 0 13 14" fill="none" xmlns="http://www.w3.org/2000/svg">
<path fill-rule="evenodd" clip-rule="evenodd" d="M9.34283 5.72382C9.60647 5.20194 9.60727 4.57903 9.3324 4.0511C9.14307 3.68747 8.84182 3.40513 8.48352 3.2374C8.48335 3.00441 8.58152 2.78212 8.75372 2.62515C8.9269 2.46724 9.1587 2.39031 9.39195 2.41312C9.60109 2.43925 9.79305 2.5417 9.93104 2.70107C10.069 2.86043 10.1431 3.06524 10.1389 3.27596V4.06849H10.7597C11.3084 4.06849 11.8347 4.28642 12.2228 4.67453C12.6107 5.0625 12.8288 5.58888 12.8288 6.13766V11.9313C12.8288 12.4801 12.6108 13.0063 12.2228 13.3944C11.8347 13.7824 11.3084 14.0005 10.7597 14.0005H2.06917C1.52039 14.0005 0.994161 13.7824 0.606044 13.3944C0.218087 13.0063 0 12.4801 0 11.9313V6.13766C0 5.58888 0.218076 5.0625 0.606044 4.67453C0.994161 4.28643 1.52039 4.06849 2.06917 4.06849H2.68995V3.27596C2.68577 3.06522 2.75979 2.86041 2.89779 2.70107C3.0358 2.54172 3.22763 2.43924 3.43677 2.41312C3.67 2.39031 3.9018 2.46725 4.075 2.62515C4.09292 2.64148 4.11004 2.65852 4.12633 2.67621L3.30715 3.84645C2.91957 4.40015 2.86845 5.12162 3.17259 5.72382H2.06931C1.84084 5.72382 1.65552 5.90899 1.65552 6.13762V7.79299H3.4424L3.30715 7.9862C2.99743 8.42867 2.91036 8.9604 3.02248 9.44836H1.65559V11.9313C1.65559 12.1598 1.84091 12.3451 2.06939 12.3451L10.76 12.3451C10.8696 12.3451 10.9749 12.3015 11.0525 12.2239C11.1302 12.1464 11.1738 12.041 11.1738 11.9313V9.44836H6.75848L7.91724 7.79299H11.1737L11.1736 6.13763C11.1736 6.02793 11.13 5.92257 11.0524 5.84506C10.9747 5.76741 10.8695 5.72382 10.7598 5.72382H9.34283Z" fill="white"/>
<path fill-rule="evenodd" clip-rule="evenodd" d="M8.16856 0.149738C8.54316 0.411962 8.63426 0.928214 8.37204 1.30282L6.38614 4.13982H7.69376C8.00248 4.13982 8.28556 4.31159 8.42813 4.58542C8.5707 4.85925 8.54908 5.18966 8.37204 5.44257L5.47421 9.58232C5.21199 9.95693 4.69574 10.048 4.32113 9.78581C3.94653 9.52359 3.85542 9.00733 4.11765 8.63273L6.10355 5.79572H4.79593C4.48721 5.79572 4.20413 5.62396 4.06156 5.35013C3.91898 5.0763 3.94061 4.74589 4.11765 4.49298L7.01547 0.353223C7.2777 -0.0213825 7.79395 -0.112486 8.16856 0.149738Z" fill="white"/>
</svg>
