<svg width="18" height="18" viewBox="0 0 18 18" fill="#000" xmlns="http://www.w3.org/2000/svg">
    <path d="M5.25 15.75H.75v1.5c0 .414.336.75.75.75h3a.75.75 0 0 0 .75-.75v-1.5zm12 0h-4.5v1.5c0 .414.336.75.75.75h3a.75.75 0 0 0 .75-.75v-1.5zm.09-7.72-.905-.905-1.192-5.362A2.237 2.237 0 0 0 13.05 0h-8.1a2.237 2.237 0 0 0-2.193 1.763L1.565 7.125.66 8.03C.236 8.451 0 9.024 0 9.621V13.5c0 .414.336.75.75.75h16.5a.75.75 0 0 0 .75-.75V9.621a2.234 2.234 0 0 0-.66-1.59zM4.222 2.087A.746.746 0 0 1 4.95 1.5h8.1a.746.746 0 0 1 .732.587l1.034 4.663H3.185L4.22 2.087zM3.375 12a1.125 1.125 0 1 1 0-2.25 1.125 1.125 0 0 1 0 2.25zm11.25 0a1.125 1.125 0 1 1 0-2.25 1.125 1.125 0 0 1 0 2.25z" fill="inherit" fill-rule="evenodd"/>
</svg>
