<svg width="20" height="20" viewBox="0 0 20 20" fill="none" xmlns="http://www.w3.org/2000/svg">
<circle cx="10" cy="10" r="10" fill="#6435F4"/>
<path d="M11.196 6.39599C11.141 6.36857 11.0861 6.36857 11.0035 6.36857V5.37887C11.0035 5.07645 10.6736 4.91154 10.4261 5.04903L8.08916 6.50609C7.84178 6.64359 7.84178 7.00084 8.08916 7.13835L10.4261 8.59541C10.6734 8.76033 11.0035 8.56799 11.0035 8.26557V7.66075C12.0206 8.07305 12.7355 9.09037 12.7355 10.2174C12.7355 10.7121 12.598 11.1797 12.3506 11.592C12.1857 11.8944 12.2682 12.2793 12.5706 12.4442C12.6805 12.4992 12.7905 12.5266 12.9004 12.5266C13.1204 12.5266 13.3403 12.4167 13.4502 12.2242C13.8077 11.6194 14 10.9046 14 10.2174C14.0002 8.45789 12.873 6.9184 11.196 6.39601L11.196 6.39599Z" fill="white"/>
<path d="M9.54651 11.8395C9.29913 11.6746 8.96909 11.8669 8.96909 12.1693V12.7741C7.95194 12.3618 7.23706 11.3445 7.23706 10.2175C7.23706 9.72276 7.37456 9.2552 7.62194 8.84293C7.78686 8.54051 7.7044 8.15563 7.40198 7.99073C7.09956 7.82581 6.71469 7.90827 6.54978 8.21069C6.19233 8.81551 6 9.53024 6 10.2175C6 11.977 7.12721 13.5165 8.8042 14.0389C8.85924 14.0663 8.91409 14.0663 8.99674 14.0663V15.056C8.99674 15.3584 9.32658 15.5233 9.57416 15.3858L11.9111 13.9288C12.1584 13.7913 12.1584 13.434 11.9111 13.2965L9.54651 11.8395Z" fill="white"/>
</svg>
