<svg width="22" height="22" viewBox="0 0 22 22" fill="none" xmlns="http://www.w3.org/2000/svg">
<path fill-rule="evenodd" clip-rule="evenodd" d="M22 11C22 17.0751 17.0751 22 11 22C4.92487 22 0 17.0751 0 11C0 4.92487 4.92487 0 11 0C17.0751 0 22 4.92487 22 11ZM15.6402 7.23178C16.0645 7.58534 16.1218 8.21591 15.7682 8.64018L10.7762 14.6306C10.7641 14.6454 10.7515 14.66 10.7384 14.6744C10.5535 14.8772 10.3021 14.9873 10.0453 14.999C9.8978 15.0057 9.74852 14.98 9.60909 14.9207C9.50737 14.8776 9.41134 14.8168 9.32565 14.7384C9.31131 14.7254 9.29744 14.712 9.28404 14.6982L6.29289 11.7071C5.90237 11.3166 5.90237 10.6834 6.29289 10.2929C6.68342 9.90237 7.31658 9.90237 7.70711 10.2929L9.9328 12.5186L14.2318 7.35982C14.5853 6.93554 15.2159 6.87821 15.6402 7.23178Z" fill="white"/>
</svg>
