<svg id="icon_action_close" data-name="icon/action/close" xmlns="http://www.w3.org/2000/svg" width="24" height="24" viewBox="0 0 24 24">
  <g id="e-remove" transform="translate(2 2)">
    <path id="Path" d="M19.571.429a1.381,1.381,0,0,0-2,0L10,8,2.429.429a1.381,1.381,0,0,0-2,0,1.381,1.381,0,0,0,0,2L8,10,.429,17.571a1.381,1.381,0,0,0,0,2,1.3,1.3,0,0,0,1,.429,1.3,1.3,0,0,0,1-.429L10,12l7.571,7.571a1.381,1.381,0,0,0,2,0,1.381,1.381,0,0,0,0-2L12,10l7.571-7.571A1.381,1.381,0,0,0,19.571.429Z"/>
  </g>
</svg>
