<svg width="15" height="15" viewBox="0 0 15 15" fill="none" xmlns="http://www.w3.org/2000/svg">
<path fill-rule="evenodd" clip-rule="evenodd" d="M0.0189684 6.07438V2.13672C0.0189684 1.57006 0.244178 1.02654 0.644765 0.625807C1.0455 0.225232 1.58897 9.99928e-06 2.15567 9.99928e-06H6.90363C7.91129 -0.00230836 8.87818 0.398596 9.58859 1.11349L14.0991 5.62404C14.5068 6.02263 14.737 6.56859 14.7377 7.13873V12.5823C14.7377 13.149 14.5126 13.6925 14.1119 14.0931C13.7113 14.4938 13.1678 14.7189 12.6011 14.7189H1.01144C0.827149 14.7309 0.640132 14.6892 0.474754 14.5936C0.180988 14.424 1.25294e-06 14.1105 1.25294e-06 13.7713V7.58346L0.016891 6.07272L0.0189684 6.07438ZM1.89901 12.8199V8.54657L12.8386 8.54668V12.5824C12.8386 12.7136 12.7323 12.8199 12.6011 12.8199H1.89901ZM6.90348 1.89921C7.41002 1.8954 7.89687 2.09559 8.25423 2.45477L12.4441 6.64723H1.91807V2.13667C1.91807 2.07358 1.94307 2.01331 1.98761 1.96876C2.03216 1.92422 2.09243 1.89921 2.15553 1.89921H6.90348Z" fill="white"/>
</svg>
