<svg width="18" height="16" viewBox="0 0 18 16" xmlns="http://www.w3.org/2000/svg">
    <g fill="#000" fill-rule="nonzero">
        <path d="M14.034 15.111H.305a.3.3 0 0 0-.305.296v.297A.3.3 0 0 0 .305 16h13.729a.3.3 0 0 0 .305-.296v-.297a.3.3 0 0 0-.305-.296zM17.695 4.148h-.626c-.075-1.197-.607-2.15-1.63-2.903a.311.311 0 0 0-.428.058.29.29 0 0 0 .06.415c.873.641 1.317 1.421 1.389 2.43h-.9a.3.3 0 0 0-.306.296v2.963a.3.3 0 0 0 .305.297h1.22v3.555c0 .98-.82 1.778-1.83 1.778-1.01 0-1.83-.797-1.83-1.778V1.481C13.119.665 12.434 0 11.593 0H2.746C1.905 0 1.22.665 1.22 1.481V14.52H13.12v-1.697a2.464 2.464 0 0 0 1.83.808c1.346 0 2.44-1.064 2.44-2.37V7.703h.306A.3.3 0 0 0 18 7.407V4.444a.3.3 0 0 0-.305-.296zM5.797 9.481H3.66a.3.3 0 0 1-.305-.296.3.3 0 0 1 .305-.296h2.136a.3.3 0 0 1 .305.296.3.3 0 0 1-.305.296zm5.186-2.074a.3.3 0 0 1-.305.297H3.661a.3.3 0 0 1-.305-.297V2.37a.3.3 0 0 1 .305-.296h7.017a.3.3 0 0 1 .305.296v5.037z"/>
    </g>
</svg>
