<svg width="12" height="15" viewBox="0 0 12 15" fill="none" xmlns="http://www.w3.org/2000/svg">
<path d="M6.56242 8.43747H8.43748C9.18347 8.43747 9.89874 8.14123 10.4263 7.6138C10.9538 7.08624 11.25 6.37097 11.25 5.62494V4.45305C11.25 4.11806 11.0713 3.8086 10.7813 3.64118C10.4913 3.47377 10.1339 3.47377 9.84387 3.64118C9.55384 3.8086 9.37516 4.1181 9.37516 4.45305V5.62494C9.37516 5.87361 9.27625 6.11215 9.1005 6.28789C8.92475 6.46364 8.68622 6.56256 8.43754 6.56256H6.56248V4.45307C6.56248 4.11808 6.38379 3.80862 6.09377 3.64121C5.80374 3.47379 5.44634 3.47379 5.15634 3.64121C4.86631 3.80862 4.68763 4.11812 4.68763 4.45307V6.56239L1.87497 6.56255V4.45307C1.87497 4.11808 1.69628 3.80861 1.40625 3.6412C1.11623 3.47379 0.758828 3.47379 0.468828 3.6412C0.178798 3.80861 0.000114441 4.11812 0.000114441 4.45307V10.5469C0.000114441 10.8819 0.178806 11.1913 0.468828 11.3588C0.758857 11.5262 1.11625 11.5262 1.40625 11.3588C1.69628 11.1913 1.87497 10.8818 1.87497 10.5469V8.43741H4.68763V10.5469C4.68763 10.8819 4.86632 11.1913 5.15634 11.3588C5.44637 11.5262 5.80377 11.5262 6.09377 11.3588C6.3838 11.1913 6.56248 10.8818 6.56248 10.5469L6.56242 8.43747Z" fill="white"/>
<path d="M1.87485 14.0626C1.87485 14.5804 1.45519 15 0.937427 15C0.419661 15 0 14.5804 0 14.0626C0 13.5448 0.419661 13.125 0.937427 13.125C1.45519 13.125 1.87485 13.5448 1.87485 14.0626Z" fill="white"/>
<path d="M6.56235 14.0626C6.56235 14.5804 6.14269 15 5.62493 15C5.10716 15 4.6875 14.5804 4.6875 14.0626C4.6875 13.5448 5.10716 13.125 5.62493 13.125C6.14269 13.125 6.56235 13.5448 6.56235 14.0626Z" fill="white"/>
<path d="M1.87485 0.937427C1.87485 1.45519 1.45519 1.87502 0.937427 1.87502C0.419661 1.87502 0 1.45519 0 0.937427C0 0.419661 0.419661 0 0.937427 0C1.45519 0 1.87485 0.419661 1.87485 0.937427Z" fill="white"/>
<path d="M6.56235 0.937427C6.56235 1.45519 6.14269 1.87502 5.62493 1.87502C5.10716 1.87502 4.6875 1.45519 4.6875 0.937427C4.6875 0.419661 5.10716 0 5.62493 0C6.14269 0 6.56235 0.419661 6.56235 0.937427Z" fill="white"/>
<path d="M11.25 0.937427C11.25 1.45519 10.8303 1.87502 10.3125 1.87502C9.79478 1.87502 9.37511 1.45519 9.37511 0.937427C9.37511 0.419661 9.79478 0 10.3125 0C10.8303 0 11.25 0.419661 11.25 0.937427Z" fill="white"/>
</svg>
