<svg width="48" height="48" viewBox="0 0 48 48" fill="#FFF" xmlns="http://www.w3.org/2000/svg">
    <path d="M22.22 7.51c-.101.454-.164.92-.193 1.397a16.463 16.463 0 0 0-8.62 3.738l1.07 1.632c.472.162 1.209.486 1.488.996.807 1.476-.185 3.618-.5 4.225-.028.38-.11 1.239-.3 1.724-.232.587-1.112 1.132-1.722 1.452-.388.678-1.136 2.166-1.136 3.036 0 1.198.975 1.396 1.273 1.427 1.35.236 2.152 1.179 2.473 1.644.616.191 1.798.642 2.222 1.396.459.815-.036 2.653-.332 3.574.078.419.204 1.38-.077 2.191-.286.823-.997 1.463-1.326 1.725-.19.442-.703 1.531-1.411 2.37a16.389 16.389 0 0 0 6.384 2.418c-.252-.573-.436-1.166-.257-1.667.207-.58.994-1.006 1.673-1.275-.085-.704-.072-1.784.654-2.374.733-.595 1.632-.343 2.226-.177l.149.04c.076-.487.114-1.45.084-2.363a.683.683 0 0 1 .172-.477c.163-.183 1.636-1.79 3.233-2.018 1.521-.22 3.369 1.61 3.986 2.277.629.154 2.562.65 4.023 1.266 2.017-2.8 3.21-6.25 3.21-9.977a17.02 17.02 0 0 0-3.532-10.408c.306-.348.585-.72.833-1.114A18.383 18.383 0 0 1 42 25.71c0 4.227-1.423 8.122-3.803 11.222-.027.036-.049.078-.082.107C34.816 41.275 29.717 44 24 44c-.46 0-.913-.023-1.365-.058l-.019.003c-.018 0-.035-.007-.053-.009a17.707 17.707 0 0 1-8.784-3.182c-.018-.009-.032-.027-.051-.037A18.364 18.364 0 0 1 6 25.71a18.374 18.374 0 0 1 6.081-13.69c.025-.022.041-.05.069-.07.007-.004.014-.004.02-.008 2.746-2.439 6.223-4.046 10.05-4.431zM30.666 2C34.71 2 38 5.343 38 9.452c0 3.645-2.592 6.682-6 7.322v7.58c0 .749-.597 1.356-1.333 1.356a1.345 1.345 0 0 1-1.334-1.355v-7.581c-3.408-.64-6-3.677-6-7.322 0-4.109 3.29-7.452 7.334-7.452z" fill-rule="evenodd"/>
</svg>
