<svg width="12" height="10" viewBox="0 0 12 10" fill="none" xmlns="http://www.w3.org/2000/svg">
<path d="M9.00016 0.0053998C8.40585 0.00505052 7.82479 0.181096 7.33059 0.511895C6.83673 0.842686 6.45168 1.3132 6.22496 1.86298C6.18625 1.9531 6.098 2.01143 6 2.01143C5.902 2.01143 5.81376 1.9531 5.77505 1.86298C5.41999 0.997745 4.68272 0.347001 3.78039 0.103504C2.87842 -0.139966 1.91448 0.0514585 1.17332 0.621179C0.432168 1.19125 -0.00169148 2.07429 4.95653e-06 3.00973C4.95653e-06 5.16284 3.08003 8.08757 4.82495 9.56966V9.57001C5.1528 9.84771 5.56819 10 5.99755 10C6.42691 10 6.84228 9.84771 7.17014 9.57001C8.91998 8.08756 12 5.16319 12 3.00973C12 2.21296 11.684 1.44868 11.1214 0.885235C10.5589 0.321785 9.79572 0.00533704 9.00017 0.00533704L9.00016 0.0053998Z" fill="#8AEA4F"/>
</svg>
