<svg width="24" height="24" fill="#000" viewBox="0 0 24 24" xmlns="http://www.w3.org/2000/svg">
    <path d="M16.16 9.742h-.64V6.194c0-1.96-1.576-3.549-3.52-3.549S8.48 4.234 8.48 6.194v3.548h-.64V6.194C7.84 3.878 9.702 2 12 2s4.16 1.878 4.16 4.194v3.548zm2.56.645H5.28c-.707 0-1.28.578-1.28 1.29v9.033c0 .712.573 1.29 1.28 1.29h13.44c.707 0 1.28-.578 1.28-1.29v-9.033c0-.712-.573-1.29-1.28-1.29zm-6.4 6.745v1.965a.321.321 0 0 1-.32.322.321.321 0 0 1-.32-.322v-1.965a1.933 1.933 0 0 1-1.593-2.07A1.926 1.926 0 0 1 12 13.288c.998 0 1.83.771 1.913 1.774a1.933 1.933 0 0 1-1.593 2.07z" fill-rule="evenodd"/>
</svg>
