<svg width="123" height="36" viewBox="0 0 123 36" fill="none" xmlns="http://www.w3.org/2000/svg">
<mask id="mask0_681_1878" style="mask-type:alpha" maskUnits="userSpaceOnUse" x="2" y="4" width="28" height="32">
<path d="M11.1505 8.92231C5.91051 10.864 2.1759 15.907 2.1759 21.8226C2.1759 29.418 8.3334 35.5759 15.9288 35.5759C23.5246 35.5759 29.6821 29.418 29.6821 21.8226C29.6821 15.9164 25.9598 10.8799 20.7322 8.93174C19.6159 7.33099 18.0253 5.80784 15.96 4.3623C13.8798 5.80458 12.2769 7.32482 11.1505 8.92231ZM22.7043 14.9072L22.7035 14.7632L22.7021 14.7012C24.5839 16.4913 25.7571 19.02 25.7571 21.8226C25.7571 27.2505 21.357 31.6509 15.9288 31.6509C10.501 31.6509 6.1009 27.2505 6.1009 21.8226C6.1009 19.02 7.27372 16.4913 9.15553 14.7012C9.15408 14.7697 9.15372 14.8383 9.15372 14.9072C9.15372 18.7894 11.4221 22.3046 15.96 25.4521C20.4562 22.3046 22.7043 18.7894 22.7043 14.9072Z" fill="white"/>
</mask>
<g mask="url(#mask0_681_1878)">
<path fill-rule="evenodd" clip-rule="evenodd" d="M11.1505 8.92231C5.91051 10.864 2.1759 15.907 2.1759 21.8226C2.1759 29.418 8.3334 35.5759 15.9288 35.5759C23.5246 35.5759 29.6821 29.418 29.6821 21.8226C29.6821 15.9164 25.9598 10.8799 20.7322 8.93174C19.6159 7.33099 18.0253 5.80784 15.96 4.3623C13.8798 5.80458 12.2769 7.32482 11.1505 8.92231ZM22.7043 14.9072L22.7035 14.7632L22.7021 14.7012C24.5839 16.4913 25.7571 19.02 25.7571 21.8226C25.7571 27.2505 21.357 31.6509 15.9288 31.6509C10.501 31.6509 6.1009 27.2505 6.1009 21.8226C6.1009 19.02 7.27372 16.4913 9.15553 14.7012C9.15408 14.7697 9.15372 14.8383 9.15372 14.9072C9.15372 18.7894 11.4221 22.3046 15.96 25.4521C20.4562 22.3046 22.7043 18.7894 22.7043 14.9072Z" fill="url(#paint0_linear_681_1878)"/>
</g>
<g filter="url(#filter0_d_681_1878)">
<mask id="mask1_681_1878" style="mask-type:alpha" maskUnits="userSpaceOnUse" x="13" y="7" width="17" height="26">
<path d="M20.1107 11.6061L20.2572 11.799L20.4051 11.9923C21.1975 13.019 22.0338 14.0148 22.704 14.6748C24.7983 16.7358 26.0099 19.744 25.7568 22.494C25.5969 24.2348 25.0823 26.007 23.7216 27.8225L23.7234 27.8131C23.0804 28.4666 22.4189 28.8539 21.7386 28.9739C20.4389 29.2035 19.3513 28.7929 18.6862 28.113C17.4604 26.8607 17.2526 25.4018 18.0646 23.735H13.8324C13.188 26.881 14.162 29.3674 16.7547 31.1941C17.7356 31.8857 19.3922 32.3553 20.6601 32.3176L20.6525 32.3364C21.0996 32.3107 21.4151 32.2846 21.599 32.257C22.102 32.183 22.4741 32.0666 22.7044 32.0224C24.8041 31.6213 31.5458 27.2553 29.2249 18.425C26.9042 9.59443 19.0604 8.61526 17.9757 7.94218C17.9119 7.90265 17.8647 7.88379 17.8328 7.88379C17.517 7.88379 18.697 9.73405 20.1107 11.6061Z" fill="white"/>
</mask>
<g mask="url(#mask1_681_1878)">
<path fill-rule="evenodd" clip-rule="evenodd" d="M20.1107 11.6061L20.2572 11.799L20.4051 11.9923C21.1975 13.019 22.0338 14.0148 22.704 14.6748C24.7983 16.7358 26.0099 19.744 25.7568 22.494C25.5969 24.2348 25.0823 26.007 23.7216 27.8225L23.7234 27.8131C23.0804 28.4666 22.4189 28.8539 21.7386 28.9739C20.4389 29.2035 19.3513 28.7929 18.6862 28.113C17.4604 26.8607 17.2526 25.4018 18.0646 23.735H13.8324C13.188 26.881 14.162 29.3674 16.7547 31.1941C17.7356 31.8857 19.3922 32.3553 20.6601 32.3176L20.6525 32.3364C21.0996 32.3107 21.4151 32.2846 21.599 32.257C22.102 32.183 22.4741 32.0666 22.7044 32.0224C24.8041 31.6213 31.5458 27.2553 29.2249 18.425C26.9042 9.59443 19.0604 8.61526 17.9757 7.94218C17.9119 7.90265 17.8647 7.88379 17.8328 7.88379C17.517 7.88379 18.697 9.73405 20.1107 11.6061Z" fill="url(#paint1_linear_681_1878)"/>
</g>
</g>
<g filter="url(#filter1_d_681_1878)">
<mask id="mask2_681_1878" style="mask-type:alpha" maskUnits="userSpaceOnUse" x="9" y="4" width="14" height="22">
<path d="M9.15375 14.9072C9.15375 18.7894 11.4221 22.3046 15.96 25.4521C20.4562 22.3046 22.7043 18.7894 22.7043 14.9072C22.7043 11.0246 20.4562 7.50978 15.96 4.3623C11.4221 7.50978 9.15375 11.0246 9.15375 14.9072Z" fill="white"/>
</mask>
<g mask="url(#mask2_681_1878)">
<path fill-rule="evenodd" clip-rule="evenodd" d="M9.15375 14.9072C9.15375 18.7894 11.4221 22.3046 15.96 25.4521C20.4562 22.3046 22.7043 18.7894 22.7043 14.9072C22.7043 11.0246 20.4562 7.50978 15.96 4.3623C11.4221 7.50978 9.15375 11.0246 9.15375 14.9072Z" fill="url(#paint2_linear_681_1878)"/>
</g>
</g>
<mask id="mask3_681_1878" style="mask-type:alpha" maskUnits="userSpaceOnUse" x="9" y="4" width="7" height="22">
<path d="M9.15375 14.9072C9.15375 18.7894 11.4221 22.3046 15.96 25.4521V4.3623C11.4221 7.50978 9.15375 11.0246 9.15375 14.9072Z" fill="white"/>
</mask>
<g mask="url(#mask3_681_1878)">
<path fill-rule="evenodd" clip-rule="evenodd" d="M9.15375 14.9072C9.15375 18.7894 11.4221 22.3046 15.96 25.4521V4.3623C11.4221 7.50978 9.15375 11.0246 9.15375 14.9072Z" fill="url(#paint3_linear_681_1878)"/>
</g>
<path fill-rule="evenodd" clip-rule="evenodd" d="M120.091 20.8208L114.64 22.2806C114.549 21.4711 114.693 20.7753 115.072 20.194C115.452 19.6126 116.011 19.2225 116.751 19.0243C117.542 18.8129 118.239 18.8695 118.841 19.1947C119.442 19.5202 119.859 20.0619 120.091 20.8208ZM119.1 27.6357C120.008 27.3929 120.794 27.0154 121.457 26.5044C122.119 25.993 122.634 25.3824 123 24.6722L121.257 23.6166C120.997 24.0872 120.641 24.4982 120.214 24.8241C119.783 25.1547 119.291 25.3961 118.767 25.535C118.001 25.7404 117.299 25.7021 116.661 25.4214C116.022 25.141 115.52 24.6527 115.153 23.9583L122.84 21.8984C122.808 21.7266 122.747 21.4719 122.657 21.1344C122.198 19.4217 121.423 18.2037 120.332 17.4808C119.241 16.758 117.866 16.6191 116.205 17.064C115.18 17.3387 114.325 17.8074 113.641 18.4704C112.966 19.1178 112.489 19.9439 112.266 20.8522C112.034 21.7764 112.057 22.7577 112.335 23.7959C112.613 24.8338 113.079 25.6927 113.735 26.3727C114.389 27.0526 115.181 27.5044 116.111 27.7281C117.04 27.9519 118.036 27.9212 119.1 27.6361V27.6357ZM104.572 25.1774C103.725 25.1774 103.037 24.8923 102.506 24.321C101.976 23.7505 101.704 23.0085 101.691 22.0947C101.704 21.1947 101.976 20.4556 102.506 19.8786C103.037 19.3008 103.726 19.0117 104.572 19.0117C105.418 19.0117 106.106 19.2968 106.637 19.8681C107.168 20.439 107.433 21.1813 107.433 22.0947C107.433 23.0085 107.168 23.7501 106.637 24.3214C106.106 24.8919 105.418 25.1774 104.572 25.1774ZM104.411 31.7866C105.539 31.7866 106.53 31.582 107.383 31.172C108.236 30.7624 108.894 30.1782 109.358 29.4189C109.821 28.6603 110.053 27.77 110.053 26.7494V16.9969H107.433V18.609C107.076 18.0767 106.586 17.6458 106.012 17.3596C105.428 17.0644 104.76 16.9164 104.008 16.9164C103.067 16.9164 102.234 17.1311 101.509 17.5613C100.784 17.9911 100.219 18.592 99.8165 19.3643C99.4134 20.1366 99.212 21.0265 99.212 22.0341C99.212 23.0551 99.4134 23.9583 99.8165 24.7443C100.219 25.5304 100.784 26.1413 101.509 26.578C102.234 27.0147 103.067 27.233 104.008 27.233C104.773 27.233 105.445 27.0883 106.023 26.7996C106.6 26.5109 107.07 26.0912 107.433 25.5401V26.8097C107.433 27.6693 107.148 28.3478 106.577 28.8447C106.006 29.3416 105.237 29.5903 104.27 29.5903C103.047 29.5903 101.925 29.2142 100.905 28.4618L99.8569 30.3561C101.254 31.3095 102.772 31.7866 104.411 31.7866ZM91.8171 25.8826C91.2264 25.8826 90.7597 25.7483 90.4169 25.4798C90.0744 25.211 89.903 24.8483 89.903 24.3918C89.903 23.9215 90.0676 23.5827 90.3971 23.3741C90.7262 23.1662 91.2401 23.0619 91.938 23.0619H94.6584V24.0291C94.5912 24.5531 94.2892 24.9934 93.7518 25.3488C93.2141 25.7047 92.5696 25.8826 91.8175 25.8826H91.8171ZM91.1928 27.8977C91.9586 27.8977 92.6367 27.7769 93.2278 27.5351C93.8186 27.2933 94.3022 26.9374 94.6786 26.4672V26.4871C94.6786 27.1994 95.2564 27.7769 95.968 27.7769C96.6782 27.7769 97.2542 27.2012 97.2542 26.491V26.4871L97.2376 20.7245C97.2243 19.5155 96.8312 18.5754 96.0586 17.9038C95.2863 17.2322 94.2018 16.8962 92.8045 16.8962C91.8774 16.8962 91.0687 17.0001 90.3765 17.2087C89.6847 17.4166 88.9156 17.7558 88.0697 18.2261L89.0167 20.0395C90.1314 19.3679 91.1993 19.0319 92.2202 19.0319C93.0127 19.0319 93.6176 19.2066 94.034 19.5559C94.4501 19.9053 94.6584 20.3953 94.6584 21.0265V21.3091H91.5151C90.2119 21.3225 89.2047 21.6144 88.4927 22.1853C87.781 22.7562 87.4248 23.5455 87.4248 24.5531C87.4248 25.1846 87.5793 25.7552 87.8886 26.2658C88.1971 26.7761 88.637 27.1756 89.2079 27.4647C89.7789 27.7534 90.4407 27.8977 91.1928 27.8977ZM79.9289 25.8826C79.3381 25.8826 78.8712 25.7483 78.5287 25.4798C78.1862 25.211 78.0151 24.8483 78.0151 24.3918C78.0151 23.9215 78.1793 23.5827 78.5085 23.3741C78.8376 23.1662 79.3519 23.0619 80.0502 23.0619H82.7701V24.0291C82.703 24.5531 82.4006 24.9934 81.8632 25.3488C81.3262 25.7047 80.6814 25.8826 79.9289 25.8826ZM79.3046 27.8977C80.0704 27.8977 80.7485 27.7769 81.34 27.5351C81.9307 27.2933 82.4143 26.9374 82.7907 26.4672V26.4871C82.7907 27.1994 83.3678 27.7769 84.0801 27.7769C84.7904 27.7769 85.366 27.2012 85.366 26.491V26.4871L85.3494 20.7245C85.3357 19.5155 84.943 18.5754 84.1707 17.9038C83.3981 17.2322 82.3136 16.8962 80.9163 16.8962C79.9895 16.8962 79.1804 17.0001 78.4886 17.2087C77.7968 17.4166 77.0274 17.7558 76.1815 18.2261L77.1281 20.0395C78.2432 19.3679 79.3111 19.0319 80.332 19.0319C81.1245 19.0319 81.729 19.2066 82.1455 19.5559C82.5623 19.9053 82.7705 20.3953 82.7705 21.0265V21.3091H79.6272C78.3241 21.3225 77.3165 21.6144 76.6048 22.1853C75.8924 22.7562 75.5366 23.5455 75.5366 24.5531C75.5366 25.1846 75.6914 25.7552 76 26.2658C76.3092 26.7761 76.7488 27.1756 77.3197 27.4647C77.8906 27.7534 78.5521 27.8977 79.3046 27.8977ZM71.6679 27.8977C72.6084 27.8977 73.5084 27.6357 74.368 27.1121L73.7636 25.1374C73.1454 25.4326 72.6354 25.5805 72.2323 25.5805C71.8559 25.5805 71.5741 25.4762 71.3861 25.268C71.1981 25.0601 71.1039 24.7075 71.1039 24.2106V19.3546H72.9595V17.4404H71.1039V14.4783H68.5044V17.4404H66.9732L66.993 19.3546H68.5044V24.674C68.5044 25.735 68.8 26.5379 69.3911 27.0818C69.9819 27.6253 70.7412 27.8977 71.6679 27.8977ZM64.6964 26.4672V12.8262H62.0771V26.4672C62.0774 27.1904 62.6646 27.7761 63.3878 27.7758C64.1103 27.7754 64.696 27.1893 64.6964 26.4672ZM54.0377 25.6816C53.1239 25.6816 52.3852 25.3791 51.8208 24.7747C51.2571 24.1702 50.9745 23.3845 50.9745 22.417C50.9745 21.4498 51.2571 20.6638 51.8208 20.0597C52.3852 19.4552 53.1239 19.1528 54.0377 19.1528C54.924 19.1528 55.6494 19.4552 56.2134 20.0597C56.7779 20.6638 57.0601 21.4498 57.0601 22.417C57.0601 23.3845 56.7779 24.1702 56.2134 24.7747C55.6494 25.3791 54.924 25.6816 54.0377 25.6816ZM54.0377 27.8775C55.1525 27.8775 56.1359 27.6491 56.989 27.1926C57.8425 26.7361 58.5072 26.0912 58.9839 25.2582C59.4607 24.425 59.6992 23.4647 59.6992 22.377C59.6992 21.3022 59.4607 20.3517 58.9839 19.5256C58.5072 18.6995 57.8425 18.0583 56.989 17.6014C56.1359 17.1445 55.1525 16.9164 54.0377 16.9164C52.9092 16.9164 51.915 17.1445 51.0553 17.6014C50.1954 18.0583 49.527 18.6995 49.0503 19.526C48.5735 20.352 48.335 21.3022 48.335 22.377C48.335 23.4647 48.5735 24.425 49.0503 25.2582C49.527 26.0912 50.1954 26.7361 51.0553 27.1926C51.915 27.6491 52.9092 27.8775 54.0377 27.8775ZM44.5645 26.5152L48.1939 16.9969H45.5544L42.794 25.1976L39.973 16.9969L37.2324 17.0171L40.8976 26.5174C41.1902 27.2763 41.9203 27.7769 42.7337 27.7769C43.5464 27.7765 44.2751 27.2749 44.5645 26.5152Z" fill="#6176F4"/>
<defs>
<filter id="filter0_d_681_1878" x="11.464" y="5.70787" width="20.4165" height="28.805" filterUnits="userSpaceOnUse" color-interpolation-filters="sRGB">
<feFlood flood-opacity="0" result="BackgroundImageFix"/>
<feColorMatrix in="SourceAlpha" type="matrix" values="0 0 0 0 0 0 0 0 0 0 0 0 0 0 0 0 0 0 127 0" result="hardAlpha"/>
<feOffset/>
<feGaussianBlur stdDeviation="1.08796"/>
<feColorMatrix type="matrix" values="0 0 0 0 0 0 0 0 0 0 0 0 0 0 0 0 0 0 0.23953 0"/>
<feBlend mode="normal" in2="BackgroundImageFix" result="effect1_dropShadow_681_1878"/>
<feBlend mode="normal" in="SourceGraphic" in2="effect1_dropShadow_681_1878" result="shape"/>
</filter>
<filter id="filter1_d_681_1878" x="6.25252" y="0.735769" width="19.353" height="26.8923" filterUnits="userSpaceOnUse" color-interpolation-filters="sRGB">
<feFlood flood-opacity="0" result="BackgroundImageFix"/>
<feColorMatrix in="SourceAlpha" type="matrix" values="0 0 0 0 0 0 0 0 0 0 0 0 0 0 0 0 0 0 127 0" result="hardAlpha"/>
<feOffset dy="-0.725307"/>
<feGaussianBlur stdDeviation="1.45061"/>
<feColorMatrix type="matrix" values="0 0 0 0 0 0 0 0 0 0 0 0 0 0 0 0 0 0 0.23953 0"/>
<feBlend mode="normal" in2="BackgroundImageFix" result="effect1_dropShadow_681_1878"/>
<feBlend mode="normal" in="SourceGraphic" in2="effect1_dropShadow_681_1878" result="shape"/>
</filter>
<linearGradient id="paint0_linear_681_1878" x1="7.1869" y1="5.13159" x2="26.7684" y2="34.1643" gradientUnits="userSpaceOnUse">
<stop stop-color="#17E9D8"/>
<stop offset="1" stop-color="#6075F4"/>
</linearGradient>
<linearGradient id="paint1_linear_681_1878" x1="21.4565" y1="14.6648" x2="22.2342" y2="28.6829" gradientUnits="userSpaceOnUse">
<stop stop-color="#2ACCDD"/>
<stop offset="1" stop-color="#2FAFAE"/>
</linearGradient>
<linearGradient id="paint2_linear_681_1878" x1="15.9289" y1="8.25131" x2="15.9289" y2="23.4877" gradientUnits="userSpaceOnUse">
<stop stop-color="#4FE9DF"/>
<stop offset="1" stop-color="#36BDBA"/>
</linearGradient>
<linearGradient id="paint3_linear_681_1878" x1="12.6017" y1="13.7271" x2="12.1874" y2="19.7712" gradientUnits="userSpaceOnUse">
<stop stop-color="#4FE9DF"/>
<stop offset="1" stop-color="#36BDBA"/>
</linearGradient>
</defs>
</svg>
