<svg width="16" height="16" viewBox="0 0 16 16" fill="none" xmlns="http://www.w3.org/2000/svg">
<path d="M14.5883 3.26836H12.8234L13.6583 1.43595H13.6584C13.7765 1.19373 13.7917 0.914064 13.7005 0.6605C13.6091 0.406957 13.419 0.200936 13.1733 0.0894889C12.9278 -0.0219583 12.6475 -0.0296215 12.396 0.0682443C12.1448 0.166108 11.9437 0.361489 11.8386 0.609655L10.6263 3.26838C10.425 3.7046 10.4603 4.21323 10.7199 4.61743C10.9795 5.02177 11.4276 5.2661 11.9087 5.26538H13.6735L12.8386 7.0978H12.8384C12.7204 7.34002 12.7052 7.61968 12.7966 7.87325C12.8878 8.12679 13.0778 8.33281 13.3235 8.44426C13.5692 8.55571 13.8494 8.56337 14.1008 8.46551C14.3521 8.36764 14.5531 8.17226 14.6583 7.92409L15.8706 5.26537C16.0718 4.82915 16.0366 4.32052 15.777 3.91632C15.5173 3.51197 15.0693 3.26765 14.5883 3.26836H14.5883Z" fill="white"/>
<path d="M0 14.5023C0 14.8995 0.157976 15.2805 0.439222 15.5614C0.720468 15.8423 1.102 16.0001 1.49971 16.0001H4.65186C4.95717 16.0003 5.25536 15.9074 5.50626 15.7338C5.75735 15.5604 5.94932 15.3145 6.05673 15.0289L6.44173 14.0029H9.5562L9.9412 15.0289C10.0486 15.3145 10.2406 15.5604 10.4917 15.7338C10.7426 15.9074 11.0407 16.0003 11.3461 16.0001H14.4982C14.8959 16.0001 15.2775 15.8423 15.5587 15.5614C15.84 15.2806 15.9979 14.8995 15.9979 14.5023V13.4763C15.9979 12.789 15.9679 12.1032 15.908 11.4192C15.8754 11.0624 15.6546 10.7502 15.3291 10.5999C15.0033 10.4498 14.6222 10.4844 14.3291 10.691C14.0362 10.8977 13.8756 11.2445 13.9082 11.6014C13.9615 12.2237 13.9882 12.8487 13.9882 13.4761V14.0029H11.691L11.2486 12.8146C11.159 12.5765 10.9986 12.3716 10.7891 12.227C10.5796 12.0825 10.3309 12.0053 10.0762 12.0059H5.92176C5.66702 12.0053 5.41839 12.0825 5.20877 12.227C4.99936 12.3716 4.83894 12.5765 4.74932 12.8146L4.30696 14.0029H1.99974V13.4763C1.99957 10.0329 2.80321 6.637 4.34686 3.55794C4.43108 3.39547 4.55854 3.2593 4.71494 3.16422C4.87152 3.06897 5.05112 3.01864 5.23421 3.01864H7.96896C8.22143 3.02056 8.46572 2.92983 8.65561 2.76371C8.84549 2.59758 8.96755 2.36755 8.99876 2.11749C9.02648 1.83626 8.93337 1.55642 8.74279 1.34748C8.55221 1.13869 8.28196 1.0201 7.99896 1.0215H5.23421C4.67745 1.02167 4.13154 1.17648 3.65798 1.46885C3.18425 1.76105 2.80135 2.17934 2.55218 2.67667C0.873422 6.02985 -0.000353011 9.72726 4.08666e-06 13.4763L0 14.5023Z" fill="white"/>
</svg>
