<svg width="64" height="64" viewBox="0 0 64 64" fill="none" xmlns="http://www.w3.org/2000/svg">
<circle opacity="0.2" cx="32" cy="32" r="32" fill="#EF6314"/>
<mask id="mask0_498_265" style="mask-type:alpha" maskUnits="userSpaceOnUse" x="14" y="18" width="36" height="27">
<rect x="14.5454" y="18.9092" width="34.9091" height="25.3372" fill="#D9D9D9"/>
</mask>
<g mask="url(#mask0_498_265)">
<path d="M49.649 31.1575C49.649 32.714 48.3872 33.9758 46.8307 33.9758C45.2742 33.9758 44.0125 32.714 44.0125 31.1575C44.0125 29.6011 46.8307 26.2256 46.8307 26.2256C46.8307 26.2256 49.649 29.6011 49.649 31.1575Z" fill="#EF6314"/>
<path fill-rule="evenodd" clip-rule="evenodd" d="M32.7057 30.7654C34.8844 35.514 32.8012 41.1297 28.0526 43.3084C23.3041 45.4871 17.6884 43.4039 15.5096 38.6553C13.3309 33.9068 15.4142 28.2911 20.1627 26.1124L35.5163 19.0678L44.9942 19.9559L44.4898 25.338L36.4541 24.585L31.015 27.0806L32.7057 30.7654ZM27.7925 33.0197C28.7263 35.0548 27.8334 37.4615 25.7983 38.3952C23.7632 39.329 21.3565 38.4362 20.4228 36.4011C19.489 34.366 20.3818 31.9592 22.4169 31.0255L22.4281 31.0204L26.1018 29.3348L27.7866 33.0068L27.7925 33.0197Z" fill="#EF6314"/>
</g>
</svg>
