<svg width="14" height="14" viewBox="0 0 14 14" fill="none" xmlns="http://www.w3.org/2000/svg">
<path d="M7.00014 8.53122C7.23223 8.53122 7.45472 8.43906 7.6189 8.27502C7.78293 8.11084 7.87509 7.88836 7.87509 7.65627V6.34368C7.87509 6.03102 7.70832 5.74219 7.43763 5.58594C7.16694 5.42969 6.83337 5.42969 6.5627 5.58594C6.29201 5.74219 6.12524 6.03106 6.12524 6.34368V7.65627C6.12524 7.88836 6.2174 8.11084 6.38143 8.27502C6.54562 8.43906 6.76809 8.53122 7.00019 8.53122H7.00014Z" fill="white"/>
<path d="M2.55753 14H11.4431C12.1953 14 12.9092 13.669 13.3951 13.0951C13.8809 12.5211 14.0897 11.7622 13.9655 11.0207L12.4889 2.16553C12.388 1.56068 12.0758 1.01118 11.6081 0.614771C11.1403 0.218205 10.547 0.000429771 9.93392 8.0189e-08H4.06668C3.45312 -0.000152499 2.8594 0.217439 2.39108 0.614029C1.92295 1.01059 1.61045 1.5604 1.50959 2.16557L0.0351231 11.0207C-0.0890849 11.7623 0.119659 12.5211 0.605518 13.0951C1.09138 13.669 1.80533 14 2.55745 14L2.55753 14ZM1.76115 11.3094L3.23777 2.4542C3.27042 2.25767 3.37159 2.07913 3.52326 1.95021C3.67509 1.82127 3.86765 1.75017 4.06678 1.74986H6.12535V3.06245V3.0623C6.12535 3.37495 6.29213 3.66379 6.56282 3.82004C6.83351 3.97644 7.16708 3.97644 7.43775 3.82004C7.70844 3.66379 7.87521 3.37492 7.87521 3.0623V1.74987H9.93378C10.1332 1.74971 10.3264 1.82052 10.4785 1.94945C10.6308 2.07839 10.7323 2.25738 10.7649 2.45422L12.2394 11.3094C12.2786 11.5436 12.2127 11.7832 12.0593 11.9643C11.906 12.1456 11.6805 12.2501 11.443 12.25H7.8752V10.9375C7.8752 10.6249 7.70842 10.336 7.43773 10.1798C7.16704 10.0234 6.83347 10.0234 6.5628 10.1798C6.29211 10.336 6.12534 10.6249 6.12534 10.9375V12.2501L2.5575 12.25C2.32007 12.2501 2.09452 12.1456 1.9412 11.9643C1.78785 11.7832 1.72193 11.5436 1.76115 11.3094L1.76115 11.3094Z" fill="white"/>
</svg>
