<svg width="15" height="15" viewBox="0 0 15 15" fill="none" xmlns="http://www.w3.org/2000/svg">
<path d="M3.20874 14.7807H11.3539C12.5884 14.7807 13.7292 14.1222 14.3464 13.053C14.9636 11.9838 14.9636 10.6667 14.3464 9.5976C13.7292 8.52842 12.5884 7.86989 11.3539 7.86989H7.68117L6.31364 2.40012C6.05004 1.38775 5.30938 0.567376 4.32922 0.202035C3.3489 -0.163311 2.25199 -0.0278095 1.38992 0.565142C0.528024 1.15809 0.00929992 2.13396 0 3.18005V11.572C0 12.4229 0.338143 13.2391 0.939866 13.8409C1.54158 14.4426 2.35769 14.7806 3.20874 14.7806V14.7807ZM1.97463 3.22724C1.96757 2.91613 2.07552 2.61362 2.27764 2.37725C2.47994 2.14086 2.76212 1.98745 3.07047 1.94614C3.36626 1.91463 3.66342 1.99073 3.90738 2.16083C4.15135 2.33094 4.32575 2.58334 4.39842 2.87173L5.90647 8.9039C5.97224 9.17196 6.12581 9.41023 6.34274 9.58067C6.55968 9.75112 6.82757 9.84392 7.10357 9.84427H11.2995C11.6655 9.83893 12.0211 9.96616 12.3007 10.2026C12.5801 10.4389 12.7645 10.7685 12.8199 11.1302C12.8761 11.5531 12.7473 11.9794 12.4665 12.3005C12.1858 12.6214 11.7802 12.8056 11.3539 12.8063H3.20878C2.88148 12.8063 2.56761 12.6762 2.33604 12.4448C2.10464 12.2134 1.97466 11.8995 1.97466 11.5722L1.97463 3.22724Z" fill="white"/>
</svg>
