<svg width="15" height="11" viewBox="0 0 15 11" fill="none" xmlns="http://www.w3.org/2000/svg">
<path d="M14.9958 7.49868C14.9958 8.0163 14.5763 8.43584 14.0587 8.43584C13.541 8.43584 13.1213 8.0163 13.1213 7.49868C13.1213 6.98106 13.541 6.56152 14.0587 6.56152C14.5763 6.56152 14.9958 6.98106 14.9958 7.49868Z" fill="white"/>
<path d="M1.87448 7.49868C1.87448 8.0163 1.45477 8.43584 0.937156 8.43584C0.41954 8.43584 0 8.0163 0 7.49868C0 6.98106 0.41954 6.56152 0.937156 6.56152C1.45477 6.56152 1.87448 6.98106 1.87448 7.49868" fill="white"/>
<path d="M8.43513 0.937156C8.43513 1.45477 8.01559 1.87448 7.49797 1.87448C6.98035 1.87448 6.56081 1.45477 6.56081 0.937156C6.56081 0.41954 6.98035 0 7.49797 0C8.01559 0 8.43513 0.41954 8.43513 0.937156Z" fill="white"/>
<path d="M3.74899 2.81216C3.74899 3.32977 3.32945 3.74931 2.81184 3.74931C2.29422 3.74931 1.87468 3.32977 1.87468 2.81216C1.87468 2.29454 2.29422 1.875 2.81184 1.875C3.32945 1.875 3.74899 2.29454 3.74899 2.81216Z" fill="white"/>
<path d="M4.72123 7.02942C4.57838 7.90122 4.85346 8.78951 5.46424 9.42792C6.07504 10.0662 6.95027 10.3805 7.82759 10.2762C8.70479 10.1719 9.48212 9.66148 9.92634 8.89788C10.3706 8.13411 10.4301 7.20607 10.0868 6.39197C10.0705 6.35209 10.0517 6.31466 10.0329 6.27478L12.8446 3.46311H12.8447C13.0816 3.22628 13.1741 2.88093 13.0875 2.55733C13.0007 2.23371 12.748 1.98105 12.4244 1.89423C12.1007 1.80761 11.7554 1.90012 11.5186 2.13694L8.70691 4.94862H8.70674C7.909 4.56878 6.97917 4.58594 6.19594 4.99504C5.41272 5.40413 4.86732 6.1576 4.72351 7.0294L4.72123 7.02942ZM7.49776 6.56084C7.74636 6.56084 7.98467 6.65956 8.16052 6.83526C8.33622 7.01112 8.43494 7.24942 8.43494 7.49802C8.43494 7.74663 8.33622 7.98493 8.16052 8.16079C7.98466 8.33649 7.74636 8.43521 7.49776 8.43521C7.24916 8.43521 7.01086 8.33649 6.835 8.16079C6.6593 7.98492 6.56058 7.74663 6.56058 7.49802C6.56058 7.24942 6.6593 7.01112 6.835 6.83526C7.01086 6.65956 7.24916 6.56084 7.49776 6.56084Z" fill="white"/>
</svg>
