<svg width="200" height="98" viewBox="0 0 200 98" fill="none" xmlns="http://www.w3.org/2000/svg">
<rect x="18" y="70" width="5" height="28" fill="#242424"/>
<circle opacity="0.7" cx="20.7792" cy="49.4023" r="20.7792" fill="#72DC31"/>
<circle opacity="0.7" cx="20.7791" cy="23.4285" r="11.6883" fill="#72DC31"/>
<circle opacity="0.7" cx="20.7793" cy="7.84403" r="7.14286" fill="#72DC31"/>
<rect x="58" y="77" width="4" height="21" fill="#242424"/>
<circle opacity="0.7" cx="60.3238" cy="63.048" r="15.5187" fill="#72DC31"/>
<circle opacity="0.7" cx="60.324" cy="43.6492" r="8.72925" fill="#72DC31"/>
<circle opacity="0.7" cx="60.3238" cy="32.0103" r="5.33454" fill="#72DC31"/>
<rect x="138" y="77" width="3" height="21" fill="#242424"/>
<circle opacity="0.7" cx="139.545" cy="63.048" r="15.5187" fill="#72DC31"/>
<circle opacity="0.7" cx="139.545" cy="43.6492" r="8.72925" fill="#72DC31"/>
<circle opacity="0.7" cx="139.545" cy="32.0103" r="5.33454" fill="#72DC31"/>
<rect x="97" y="70" width="5" height="28" fill="#242424"/>
<circle opacity="0.7" cx="99.9999" cy="49.4023" r="20.7792" fill="#72DC31"/>
<circle opacity="0.7" cx="100" cy="23.4285" r="11.6883" fill="#72DC31"/>
<circle opacity="0.7" cx="100" cy="7.84403" r="7.14286" fill="#72DC31"/>
<rect x="177" y="70" width="4" height="28" fill="#242424"/>
<circle opacity="0.7" cx="179.221" cy="49.4023" r="20.7792" fill="#72DC31"/>
<circle opacity="0.7" cx="179.221" cy="23.4285" r="11.6883" fill="#72DC31"/>
<circle opacity="0.7" cx="179.221" cy="7.84403" r="7.14286" fill="#72DC31"/>
</svg>
