<svg width="279" height="279" viewBox="0 0 279 279" xmlns="http://www.w3.org/2000/svg">
    <defs>
        <linearGradient x1="13.278%" y1="48.94%" x2="105.968%" y2="55.581%" id="uvoggyc0ea">
            <stop stop-color="#5F81EE" stop-opacity=".5" offset="0%"/>
            <stop stop-color="#5F818E" offset="58%"/>
            <stop stop-color="#5F81EE" stop-opacity=".5" offset="100%"/>
        </linearGradient>
        <linearGradient x1="4.077%" y1="49.978%" x2="103.651%" y2="49.978%" id="1ga5ne0rdb">
            <stop stop-color="#C3CEF0" offset="9%"/>
            <stop stop-color="#99ACED" offset="53%"/>
            <stop stop-color="#CCD6F1" offset="100%"/>
        </linearGradient>
        <linearGradient x1="-19.916%" y1="49.632%" x2="109.769%" y2="50.316%" id="l20svjka1c">
            <stop stop-color="#FFF" offset="0%"/>
            <stop stop-color="#D7DDF5" offset="59%"/>
            <stop stop-color="#FFF" offset="100%"/>
        </linearGradient>
        <linearGradient x1="49.552%" y1="66.112%" x2="51.659%" y2="120.25%" id="cnqu4pfafd">
            <stop stop-color="#C8D3F6" offset="9%"/>
            <stop stop-color="#9DB0F3" offset="53%"/>
            <stop stop-color="#D1DBF7" offset="100%"/>
        </linearGradient>
        <linearGradient x1="0%" y1="50.318%" x2="100%" y2="50.318%" id="llfknuse3e">
            <stop stop-color="#C8D3F6" offset="9%"/>
            <stop stop-color="#9DB0F3" offset="53%"/>
            <stop stop-color="#D1DBF7" offset="100%"/>
        </linearGradient>
        <linearGradient x1="49.342%" y1="39.16%" x2="51.237%" y2="146.884%" id="qjimt1afnf">
            <stop stop-color="#C8D3F6" offset="9%"/>
            <stop stop-color="#9DB0F3" offset="53%"/>
            <stop stop-color="#BECBF6" offset="83%"/>
            <stop stop-color="#D1DBF7" offset="100%"/>
        </linearGradient>
        <linearGradient x1="98.842%" y1="79.204%" x2="33.591%" y2="40.365%" id="evedgv36jg">
            <stop stop-color="#C8D3F6" offset="9%"/>
            <stop stop-color="#9DB0F3" offset="53%"/>
            <stop stop-color="#D1DBF7" offset="100%"/>
        </linearGradient>
        <linearGradient x1="48.174%" y1="12.461%" x2="52.089%" y2="152.729%" id="omiwydoirh">
            <stop stop-color="#C8D3F6" offset="9%"/>
            <stop stop-color="#9DB0F3" offset="53%"/>
            <stop stop-color="#D1DBF7" offset="100%"/>
        </linearGradient>
        <linearGradient x1="48.153%" y1="12.846%" x2="52.008%" y2="152.711%" id="z1otwbc3ni">
            <stop stop-color="#C8D3F6" offset="9%"/>
            <stop stop-color="#9DB0F3" offset="53%"/>
            <stop stop-color="#D1DBF7" offset="100%"/>
        </linearGradient>
        <linearGradient x1="41.995%" y1="44.672%" x2="67.135%" y2="61.412%" id="trrb4h3caj">
            <stop stop-color="#404CA6" offset="0%"/>
            <stop stop-color="#404CA6" stop-opacity=".5" offset="100%"/>
        </linearGradient>
        <linearGradient x1="96.718%" y1="36.527%" x2="-63.111%" y2="82.609%" id="cyiz10yank">
            <stop stop-color="#FFF" offset="0%"/>
            <stop stop-color="#404CA6" stop-opacity=".3" offset="100%"/>
        </linearGradient>
        <linearGradient x1="94.159%" y1="36.042%" x2="-31.057%" y2="75.623%" id="18ih66xwsl">
            <stop stop-color="#404CA6" offset="0%"/>
            <stop stop-color="#404CA6" stop-opacity=".5" offset="100%"/>
        </linearGradient>
        <linearGradient x1="94.483%" y1="35.799%" x2="-4.513%" y2="67.406%" id="ieo37jj6hm">
            <stop stop-color="#404CA6" offset="0%"/>
            <stop stop-color="#404CA6" stop-opacity=".5" offset="100%"/>
        </linearGradient>
        <linearGradient x1="65.821%" y1="44.997%" x2="-60.62%" y2="84.962%" id="wmi8338b7n">
            <stop stop-color="#404CA6" offset="0%"/>
            <stop stop-color="#404CA6" stop-opacity=".5" offset="100%"/>
        </linearGradient>
        <linearGradient x1="72.028%" y1="43.652%" x2="-87.842%" y2="89.729%" id="tbqurcb04o">
            <stop stop-color="#FFF" offset="0%"/>
            <stop stop-color="#404CA6" stop-opacity=".3" offset="100%"/>
        </linearGradient>
        <linearGradient x1="93.531%" y1="36.103%" x2="-7.849%" y2="68.471%" id="hruojsjxwp">
            <stop stop-color="#404CA6" offset="0%"/>
            <stop stop-color="#404CA6" stop-opacity=".5" offset="100%"/>
        </linearGradient>
        <linearGradient x1="58.087%" y1="-36.126%" x2="47.809%" y2="73.052%" id="tpaw23bnqq">
            <stop stop-color="#9CAFF3" offset="0%"/>
            <stop stop-color="#AFBFF5" offset="7%"/>
            <stop stop-color="#C9D4F8" offset="20%"/>
            <stop stop-color="#DEE4FB" offset="34%"/>
            <stop stop-color="#ECF0FD" offset="50%"/>
            <stop stop-color="#F4F7FE" offset="69%"/>
            <stop stop-color="#F7F9FE" offset="100%"/>
        </linearGradient>
        <linearGradient x1="41.843%" y1="143.408%" x2="55.443%" y2="-17.808%" id="rx1a68peer">
            <stop stop-color="#070937" offset="0%"/>
            <stop stop-color="#485593" offset="100%"/>
        </linearGradient>
        <linearGradient x1=".087%" y1="50%" x2="99.874%" y2="50%" id="2e2tmkjwxs">
            <stop stop-color="#070937" offset="0%"/>
            <stop stop-color="#485593" offset="100%"/>
        </linearGradient>
        <linearGradient x1="12.763%" y1="-173.994%" x2="158.442%" y2="739.425%" id="z8cnf4xcut">
            <stop stop-color="#9CAFF3" offset="0%"/>
            <stop stop-color="#F7F9FE" offset="100%"/>
        </linearGradient>
        <linearGradient x1="72.137%" y1="59.258%" x2="-12.432%" y2="17.779%" id="erubwt1d2u">
            <stop stop-color="#070937" offset="0%"/>
            <stop stop-color="#485593" offset="100%"/>
        </linearGradient>
        <linearGradient x1="94.696%" y1="182.169%" x2="31.899%" y2="-3.459%" id="egru0qp6zv">
            <stop stop-color="#070937" offset="0%"/>
            <stop stop-color="#485593" offset="100%"/>
        </linearGradient>
        <linearGradient x1="102.462%" y1="178.811%" x2="9.317%" y2="-49.841%" id="uvf25oaluw">
            <stop stop-color="#9CAFF3" offset="0%"/>
            <stop stop-color="#F7F9FE" offset="100%"/>
        </linearGradient>
        <linearGradient x1="85.485%" y1="62.29%" x2="-40.169%" y2="15.428%" id="lw0ypm7psx">
            <stop stop-color="#070937" offset="0%"/>
            <stop stop-color="#485593" offset="100%"/>
        </linearGradient>
        <linearGradient x1="106.769%" y1="217.882%" x2="43.981%" y2="32.266%" id="57jwmp5zyy">
            <stop stop-color="#070937" offset="0%"/>
            <stop stop-color="#485593" offset="100%"/>
        </linearGradient>
        <linearGradient x1="107.179%" y1="190.266%" x2="13.944%" y2="-38.423%" id="k7y7axvp4z">
            <stop stop-color="#9CAFF3" offset="0%"/>
            <stop stop-color="#F7F9FE" offset="100%"/>
        </linearGradient>
        <linearGradient x1="23.646%" y1="73.428%" x2="126.815%" y2="34.208%" id="js7da2njkA">
            <stop stop-color="#9CAFF3" offset="0%"/>
            <stop stop-color="#F7F9FE" offset="100%"/>
        </linearGradient>
        <linearGradient x1="46.668%" y1="49.616%" x2="53.24%" y2="55.374%" id="2udf24ye7B">
            <stop stop-color="#FF7B7F" offset="0%"/>
            <stop stop-color="#F67379" offset="18%"/>
            <stop stop-color="#E2636B" offset="67%"/>
            <stop stop-color="#DB5D66" offset="100%"/>
        </linearGradient>
        <linearGradient x1="23.194%" y1="81.142%" x2="156.407%" y2="22.125%" id="h38eohiliC">
            <stop stop-color="#9CAFF3" offset="0%"/>
            <stop stop-color="#F7F9FE" offset="100%"/>
        </linearGradient>
        <linearGradient x1="95.047%" y1="91.325%" x2="9.002%" y2="44.297%" id="h3xz5p23yD">
            <stop stop-color="#9CAFF3" offset="0%"/>
            <stop stop-color="#F7F9FE" offset="100%"/>
        </linearGradient>
        <linearGradient x1="99.352%" y1="104.42%" x2="16.263%" y2="48.65%" id="2xmi7mb87E">
            <stop stop-color="#9CAFF3" offset="0%"/>
            <stop stop-color="#F7F9FE" offset="100%"/>
        </linearGradient>
        <linearGradient x1="-.026%" y1="50.01%" x2="100%" y2="50.01%" id="cbbngqdmdF">
            <stop stop-color="#070937" offset="0%"/>
            <stop stop-color="#485593" offset="100%"/>
        </linearGradient>
        <linearGradient x1="13.523%" y1="151.57%" x2="112.563%" y2="151.57%" id="w72vla1ggG">
            <stop stop-color="#9CAFF3" offset="0%"/>
            <stop stop-color="#F7F9FE" offset="100%"/>
        </linearGradient>
        <linearGradient x1="118.158%" y1="-4.666%" x2="-309.099%" y2="265.503%" id="4ynjuu4htH">
            <stop stop-color="#070937" offset="0%"/>
            <stop stop-color="#485593" offset="100%"/>
        </linearGradient>
        <linearGradient x1="115.731%" y1="9.838%" x2="-17.129%" y2="86.057%" id="5w2vzmxp5I">
            <stop stop-color="#070937" offset="0%"/>
            <stop stop-color="#485593" offset="100%"/>
        </linearGradient>
        <linearGradient x1="211.854%" y1="-49.332%" x2="60.798%" y2="51.536%" id="5zrp0rki5J">
            <stop stop-color="#070937" offset="0%"/>
            <stop stop-color="#485593" offset="100%"/>
        </linearGradient>
        <linearGradient x1="254.976%" y1="565.962%" x2="215.759%" y2="457.063%" id="nsw4vkzk0K">
            <stop stop-color="#9CAFF3" offset="0%"/>
            <stop stop-color="#F7F9FE" offset="100%"/>
        </linearGradient>
        <linearGradient x1="274.017%" y1="624.258%" x2="234.8%" y2="515.715%" id="ln3ruyqryL">
            <stop stop-color="#9CAFF3" offset="0%"/>
            <stop stop-color="#F7F9FE" offset="100%"/>
        </linearGradient>
        <linearGradient x1="-.238%" y1="-17.552%" x2="175.453%" y2="324.69%" id="yit0zztr6M">
            <stop stop-color="#9CAFF3" offset="0%"/>
            <stop stop-color="#F7F9FE" offset="100%"/>
        </linearGradient>
        <linearGradient x1=".067%" y1="50.078%" x2="99.977%" y2="50.078%" id="w55ljx5j4N">
            <stop stop-color="#070937" offset="0%"/>
            <stop stop-color="#485593" offset="100%"/>
        </linearGradient>
        <linearGradient x1="43.775%" y1="49.653%" x2="55.79%" y2="50.44%" id="c0rofzjx1O">
            <stop stop-color="#070937" offset="0%"/>
            <stop stop-color="#485593" offset="100%"/>
        </linearGradient>
        <linearGradient x1=".384%" y1="49.955%" x2="99.923%" y2="49.955%" id="00lmm7w45P">
            <stop stop-color="#070937" offset="0%"/>
            <stop stop-color="#485593" offset="100%"/>
        </linearGradient>
        <linearGradient x1="47.313%" y1="103.93%" x2="51.282%" y2="8.131%" id="y6b8ifrakQ">
            <stop stop-color="#FFF" offset="0%"/>
            <stop stop-color="#FFF" stop-opacity="0" offset="100%"/>
        </linearGradient>
        <linearGradient x1="49.01%" y1="104.851%" x2="50.795%" y2="9.938%" id="3bd89erqhR">
            <stop stop-color="#FFF" offset="0%"/>
            <stop stop-color="#FFF" stop-opacity="0" offset="100%"/>
        </linearGradient>
        <linearGradient x1="48.025%" y1="106.816%" x2="51.846%" y2="8.34%" id="3wbiibfp4S">
            <stop stop-color="#FFF" offset="0%"/>
            <stop stop-color="#FFF" stop-opacity="0" offset="100%"/>
        </linearGradient>
        <linearGradient x1="49.426%" y1="105.523%" x2="50.758%" y2="9.416%" id="hjl3amkuiT">
            <stop stop-color="#FFF" offset="0%"/>
            <stop stop-color="#FFF" stop-opacity="0" offset="100%"/>
        </linearGradient>
        <linearGradient x1="-.403%" y1="49.611%" x2="100.33%" y2="50.383%" id="8rrgmndrcU">
            <stop stop-color="#070937" offset="0%"/>
            <stop stop-color="#485593" offset="100%"/>
        </linearGradient>
        <linearGradient x1="-169.262%" y1="152.791%" x2="205.832%" y2="41.625%" id="olo3e4vevV">
            <stop stop-color="#9CAFF3" offset="0%"/>
            <stop stop-color="#F7F9FE" offset="100%"/>
        </linearGradient>
        <linearGradient x1="-.025%" y1="49.68%" x2="99.999%" y2="49.68%" id="gc8g0n26sW">
            <stop stop-color="#070937" offset="0%"/>
            <stop stop-color="#485593" offset="100%"/>
        </linearGradient>
        <linearGradient x1="-.613%" y1="50.175%" x2="99.977%" y2="50.175%" id="cuvjwfoduX">
            <stop stop-color="#070937" offset="0%"/>
            <stop stop-color="#485593" offset="100%"/>
        </linearGradient>
        <linearGradient x1="-129.765%" y1="110.973%" x2="129.082%" y2="23.206%" id="qx3q2tzkfY">
            <stop stop-color="#9CAFF3" offset="0%"/>
            <stop stop-color="#BCC9F7" offset="25%"/>
            <stop stop-color="#DCE3FB" offset="56%"/>
            <stop stop-color="#F0F3FD" offset="82%"/>
            <stop stop-color="#F7F9FE" offset="100%"/>
        </linearGradient>
        <linearGradient x1="0%" y1="49.985%" x2="99.967%" y2="49.985%" id="5h68rl4n4Z">
            <stop stop-color="#404CA6" offset="0%"/>
            <stop stop-color="#404CA6" stop-opacity=".5" offset="100%"/>
        </linearGradient>
    </defs>
    <g transform="translate(0 27.9)" fill-rule="nonzero" fill="none">
        <path d="M68.882 169.368c47.436-6.474 96.405.46 143.011-10.315 4.667-1.08 9.673-2.588 12.469-6.487 2.12-2.959 2.554-6.768 2.815-10.405.543-7.611.505-15.62-3.013-22.368-7.502-14.457-26.815-17.256-39.584-27.341-6.033-4.742-10.566-11.088-15.322-17.122-12.897-16.367-28.156-31.092-46.096-41.682-17.94-10.59-38.677-16.898-59.49-16.105-9.596.357-19.313 2.275-27.709 6.972C25.378 30.446 17.551 40.43 11.92 51.191c-12.948 24.734-15.24 54.593-7.4 81.39 1.826 6.219 4.201 12.36 7.987 17.62 9.743 13.517 27.325 19.174 43.957 19.972l12.418-.805" fill="url(#uvoggyc0ea)" opacity=".1"/>
        <path d="m270.336 150.125-9.449 2.626-116.643-42.48c-3.703-1.573-10.177-1.375-14.461.434L20.02 157.225l-5.528.102c-.575 0-12.77-5.438-12.77-5.438v14.737c-.21 1.119.6 2.205 2.465 2.998l123.66 52.515c3.71 1.572 10.215 1.374 14.461-.441l124.56-52.803c2.701-1.144 3.882-2.652 3.455-4.007l.012-14.763z" fill="url(#1ga5ne0rdb)"/>
        <path d="M270.336 150.393c-.28 1.042-1.443 2.103-3.46 2.96L142.29 206.128c-4.278 1.81-10.739 2.007-14.454.441l-13.293-5.65-4.673-1.993-5.44-2.314-6.078-2.556-3.767-1.604-3.128-1.336-2.739-1.163-7.316-3.094-50.757-21.582-.734-.307-3.94-1.662-1.915-.824-3.147-1.342-.364-.16-6.078-2.556-10.285-4.397c-1.392-.588-2.19-1.336-2.42-2.16-.409-1.349.792-2.845 3.448-3.97l124.573-52.757c4.29-1.828 10.745-2.007 14.46-.454l10.26 4.378 6.066 2.556.383.16 3.14 1.336 1.916.818 3.92 1.661.76.32 50.737 21.557 7.31 3.112 2.74 1.163 3.134 1.33 3.767 1.604 6.065 2.556 5.44 2.314 4.66 1.988 13.293 5.643c2.036.882 2.828 2.032 2.502 3.208z" fill="url(#l20svjka1c)"/>
        <ellipse fill="#404CA6" opacity=".1" cx="137.182" cy="101.924" rx="7.419" ry="3.579"/>
        <path d="M139.021 99.572a1.368 1.368 0 0 1 0 2.486 3.827 3.827 0 0 1-3.575.14l-.25-.14-.216-.166c-.837-.684-.766-1.688.21-2.32a3.827 3.827 0 0 1 3.831 0z" fill="#404CA6"/>
        <path fill="#404CA6" d="M134.418 66.313h5.401v34.499h-5.401z"/>
        <path d="M151.254 87.25c0 2.364-1.335 4.723-4.093 6.519-.344.225-.702.438-1.072.639-.756.395-1.542.73-2.35 1.003a12.76 12.76 0 0 1-.747.236c-.255.07-.574.16-.862.23l-.3.07-.638.135-.287.051c-.281.051-.569.096-.85.134l-.344.045-.562.058h-.415l-.524.032h-1.098a18.704 18.704 0 0 1-9.966-2.685 10.099 10.099 0 0 1-3.122-3.042 6.396 6.396 0 0 1-1.053-3.45c0-1.733 14.141-31.49 14.141-31.49s14.129 29.827 14.142 31.515z" fill="url(#cnqu4pfafd)"/>
        <path d="M146.089 94.401z" fill="url(#llfknuse3e)"/>
        <path d="M148.45 80.296c-4.117-9.292-11.331-24.503-11.331-24.503s-7.208 15.153-11.346 24.446a7.667 7.667 0 0 0 3.078 3.496c4.59 2.971 12.009 2.978 16.6 0a7.494 7.494 0 0 0 3-3.439z" fill="#151584" opacity=".2"/>
        <path d="M148.84 75.893c0 1.95-1.11 3.911-3.396 5.4-.287.188-.583.36-.888.518-.261.14-.53.268-.81.39-.281.121-.415.185-.639.262l-.345.128c-.74.272-1.5.485-2.272.639-.543.102-1.099.185-1.654.236a19.12 19.12 0 0 1-1.724.077 15.521 15.521 0 0 1-8.261-2.224 8.361 8.361 0 0 1-2.586-2.557 5.372 5.372 0 0 1-.881-2.863c0-1.438 11.728-26.088 11.728-26.088s11.716 24.682 11.728 26.082z" fill="url(#qjimt1afnf)"/>
        <path d="M138.849 83.44z" fill="url(#evedgv36jg)"/>
        <path d="M137.125 49.817s-3.69 7.76-6.934 14.821a5.525 5.525 0 0 0 1.533 1.425c2.994 1.918 7.846 1.918 10.853 0a5.589 5.589 0 0 0 1.5-1.4c-3.262-7.074-6.952-14.846-6.952-14.846z" fill="#151584" opacity=".2"/>
        <path d="M144.773 60.081c0 1.279-.721 2.557-2.228 3.541a8.59 8.59 0 0 1-1.513.76 3.043 3.043 0 0 0-.319.122c-.345.109-.683.204-1.028.294l-.6.109a.319.319 0 0 1-.109 0 4.337 4.337 0 0 1-.491.07h-.147c-.16.025-.323.038-.485.038a.415.415 0 0 1-.122 0 10.36 10.36 0 0 1-6.007-1.431 5.62 5.62 0 0 1-1.699-1.585 3.55 3.55 0 0 1-.561-1.873c0-.454 1.71-4.27 3.511-8.187 2.018-4.371 4.144-8.851 4.144-8.851s2.126 4.473 4.143 8.877c1.8 3.88 3.499 7.695 3.511 8.116z" fill="url(#omiwydoirh)"/>
        <path d="M141.262 51.94a11.188 11.188 0 0 1-8.3 0c2.018-4.372 4.144-8.852 4.144-8.852s2.139 4.48 4.156 8.851z" fill="#151584" opacity=".2"/>
        <path d="M141.907 47.88a2.665 2.665 0 0 1-1.392 2.212 4.684 4.684 0 0 1-.945.48l-.204.076c-.21.07-.428.128-.639.18-.12 0-.249.05-.37.076h-.07l-.313.045h-.453a6.45 6.45 0 0 1-3.754-.902 3.41 3.41 0 0 1-1.06-1.029 2.251 2.251 0 0 1-.358-1.17c0-.6 4.795-10.666 4.795-10.666s4.756 10.117 4.763 10.699z" fill="url(#z1otwbc3ni)"/>
        <path fill="url(#trrb4h3caj)" d="m244.473 137.292-12.01 5.08h-.012l-128.034 54.241-6.078-2.569-3.766-1.604-3.129-1.336-2.739-1.163-7.316-3.093-50.77-21.57-.734-.307-3.939-1.662 122.032-51.697 18.062-7.65 3.92 1.662.76.32 50.737 21.556 7.31 3.113 2.746 1.163 3.128 1.33 3.767 1.604z"/>
        <path fill="url(#trrb4h3caj)" d="m244.473 137.292-12.01 5.08h-.012l-128.034 54.241-6.078-2.569-3.766-1.604-3.129-1.336-2.739-1.163-7.316-3.093-50.77-21.57-.734-.307-3.939-1.662 122.032-51.697 18.062-7.65 3.92 1.662.76.32 50.737 21.556 7.31 3.113 2.746 1.163 3.128 1.33 3.767 1.604z"/>
        <path fill="url(#cyiz10yank)" d="m166.04 103.962-18.062 7.65L25.946 163.31l-1.921-.824-3.142-1.342-.364-.16 121.394-51.429 18.668-7.905.383.16 3.142 1.335z"/>
        <path fill="url(#18ih66xwsl)" d="m160.581 101.649-18.668 7.905-121.394 51.43-6.078-2.576 2.727-1.164 137.348-58.177z"/>
        <path fill="url(#ieo37jj6hm)" d="M238.408 134.71 225.92 140 98.34 194.044l-3.767-1.604-3.129-1.336-2.739-1.163-7.316-3.093-50.77-21.57-.734-.307-3.939-1.662 122.032-51.697 18.062-7.65 3.92 1.662.76.32 50.737 21.556 7.31 3.113 2.746 1.163 3.128 1.33z"/>
        <path fill="url(#wmi8338b7n)" d="m254.599 141.593-11.237 4.761-128.819 54.573-4.673-2L238.33 144.52l11.594-4.909h.013z"/>
        <path fill="url(#tbqurcb04o)" d="m249.925 139.611-11.594 4.909-128.461 54.407h-.013l-5.44-2.314 128.034-54.24h.013l12.009-5.081h.013z"/>
        <path fill="url(#hruojsjxwp)" d="m244.473 137.292-12.01 5.08h-.012l-128.034 54.241-6.078-2.569-3.766-1.604-3.129-1.336-2.739-1.163-7.316-3.093-50.77-21.57 122.397-51.831 17.704-7.504 50.737 21.557 7.31 3.113 2.746 1.163 3.128 1.33 3.767 1.604z"/>
        <path d="M260.485 105.458c0 2.556-2.19 3.662-4.884 2.524l-55.845-23.647c-2.7-1.144-4.877-4.122-4.877-6.653V2.971c0-2.556 2.19-3.662 4.884-2.524l55.844 23.646c2.701 1.138 4.885 4.116 4.872 6.647l.006 74.718z" fill="url(#tpaw23bnqq)"/>
        <path d="M46.6 75.355c0 .64-.523.882-1.175.6L1.181 57.218A1.95 1.95 0 0 1 0 55.62c0-.6.53-.869 1.181-.6l44.244 18.725c.652.281 1.101.892 1.175 1.598v.013zm-8.14 5.356c0 .639-.517.882-1.168.639L1.182 66.037a1.917 1.917 0 0 1-1.176-1.598c0-.639.524-.876 1.175-.639l36.117 15.287c.65.276 1.097.887 1.162 1.592v.032zm-8.134-7.842a1.917 1.917 0 0 0-1.162-1.592L1.181 59.428c-.638-.268-1.175 0-1.175.64.065.71.517 1.325 1.175 1.597l27.983 11.843c.639.268 1.168 0 1.162-.607v-.032zM46.6 59.953c0 .639-.523.875-1.175.6L1.168 41.834a1.917 1.917 0 0 1-1.162-1.598c0-.639.524-.875 1.175-.639l44.244 18.726c.652.28 1.101.891 1.175 1.598v.032zm-8.134 5.362c0 .639-.523.875-1.168.6l-36.13-15.28a1.917 1.917 0 0 1-1.162-1.598c0-.64.518-.876 1.175-.64l36.11 15.288c.652.28 1.101.892 1.175 1.598v.032zm-8.14-7.842a1.917 1.917 0 0 0-1.162-1.598L1.181 44.032c-.638-.274-1.175 0-1.175.601.07.71.52 1.324 1.175 1.604l27.983 11.837c.639.274 1.162 0 1.162-.601zm0-43.926a1.917 1.917 0 0 0-1.162-1.598L1.181.107C.543-.168.006.107.006.707c.07.71.52 1.324 1.175 1.605l27.983 11.836c.639.281 1.162 0 1.162-.6zm-4.993 5.113a1.917 1.917 0 0 0-1.168-1.598L10.241 11.26c-.639-.275-1.169 0-1.175.601.076.707.524 1.32 1.175 1.604l13.924 5.797c.639.281 1.168 0 1.168-.601zm.109 5.618a1.917 1.917 0 0 0-1.168-1.598l-13.925-5.81c-.638-.268-1.168 0-1.175.64a1.968 1.968 0 0 0 1.175 1.604l13.925 5.796c.638.275 1.168 0 1.168-.6v-.032zM3.448 36.913.594 35.96V23.038l2.873.952-.02 12.923zm6.908 2.876-2.88-.946v-9.184l2.88.952v9.178zm6.908 2.882-2.88-.952V28.22l2.88.952v13.498zm6.901 2.883-2.88-.953V33.187l2.88.952v11.415zm6.761 2.665-2.88-.953V39.17l2.874.952.006 8.098z" opacity=".18" transform="translate(204.347 11.812)" fill="url(#rx1a68peer)"/>
        <path d="M2.13 12.801v-1.278A4.475 4.475 0 0 1 .006 7.509v-.492L1.76 8.034v.338a1.867 1.867 0 0 0 .76 1.77c.294.167.504.18.638 0 .145-.201.213-.448.192-.696.002-.29-.06-.579-.179-.844a3.675 3.675 0 0 0-.479-.767 15.867 15.867 0 0 0-.638-.735c-.23-.249-.473-.51-.715-.798a7.944 7.944 0 0 1-.639-.92 4.7 4.7 0 0 1-.472-1.158 5.22 5.22 0 0 1-.185-1.438 2.405 2.405 0 0 1 .504-1.738c.332-.339.862-.339 1.59 0V0l.843.492V1.56a4.594 4.594 0 0 1 1.583 1.764c.327.678.495 1.421.492 2.173v.243L3.299 4.723c0-.901-.236-1.496-.709-1.764-.472-.268-.728-.077-.728.607.006.404.125.799.345 1.138.238.39.519.752.837 1.08.325.339.638.703.983 1.086.346.424.626.898.83 1.406.229.58.344 1.199.338 1.822 0 1.029-.185 1.693-.562 1.981-.376.288-.925.268-1.653-.064v1.278l-.85-.492z" opacity=".51" transform="translate(204.974 17.722)" fill="url(#2e2tmkjwxs)"/>
        <path fill="#3C2A49" opacity=".16" style="mix-blend-mode:multiply" d="m112.021 119.94-76.753 33.195 45.093 21.921 30.377.665z"/>
        <path d="M36.975 20.668a1.36 1.36 0 0 0-1.156-.569.823.823 0 0 0-.421.21 9.032 9.032 0 0 0-.51 2.244c-.08.922.04 1.851.35 2.723.178.349.492.608.869.716a1.819 1.819 0 0 0 1.915-.889 2.559 2.559 0 0 0 .3-2.18 8.31 8.31 0 0 0-1.347-2.255z" fill="url(#z8cnf4xcut)" transform="translate(73.54 96.933)"/>
        <path fill="#17141E" d="m118.125 154.253 21.707 10.552 5.203-5.956-2.47-4.48-7.566-4.302zM203.664 120.368l7.565 4.301.224.403a6.729 6.729 0 0 1-.811 7.759l-1.96 2.358-21.886-10.635 16.868-4.186z"/>
        <path d="M7.944.764c2.17-.94 4.118-.985 5.503-.288l4.77 2.32-11.333 14.7-4.769-2.32C.768 14.497-.043 13.117.002 11.186.104 7.29 3.66 2.623 7.944.764z" fill="url(#erubwt1d2u)" transform="translate(117.19 156.142)"/>
        <path d="M4.784 13.514c-.09 3.898 3.32 5.56 7.616 3.7 4.297-1.86 7.853-6.531 7.943-10.43.089-3.898-3.32-5.56-7.617-3.7-4.297 1.86-7.853 6.525-7.942 10.43z" fill="url(#egru0qp6zv)" transform="translate(117.19 156.142)"/>
        <path d="M56.11 74.397c2.961-1.22 5.451-4.422 5.566-7.139.115-2.716-2.196-3.93-5.152-2.71-2.956 1.221-5.452 4.423-5.56 7.146-.11 2.722 2.19 3.937 5.145 2.703z" fill="url(#uvf25oaluw)" transform="translate(73.54 96.933)"/>
        <path d="M7.944.761c2.17-.94 4.118-.978 5.503-.288l4.763 2.32-11.326 14.7-4.769-2.32C.768 14.495-.043 13.115.002 11.185.092 7.286 3.647 2.62 7.944.76z" fill="url(#lw0ypm7psx)" transform="translate(185.396 126.65)"/>
        <path d="M4.77 13.511c-.088 3.899 3.32 5.56 7.618 3.7 4.296-1.86 7.852-6.525 7.942-10.43.09-3.904-3.32-5.56-7.617-3.7-4.297 1.86-7.853 6.525-7.942 10.43z" fill="url(#57jwmp5zyy)" transform="translate(185.396 126.65)"/>
        <path d="M124.301 44.903c2.963-1.221 5.453-4.417 5.568-7.14.114-2.722-2.197-3.93-5.153-2.709-2.956 1.22-5.452 4.423-5.567 7.145-.115 2.723 2.196 3.93 5.152 2.704z" fill="url(#k7y7axvp4z)" transform="translate(73.54 96.933)"/>
        <path d="M4.612 44.2c2.554-2.953 7.195-6.174 10.988-8.079 10.726-5.394 15.227-8.41 24.988-14.7 3.39-2.191 9.577-6.659 13.12-8.659 1.52-.85 22.308-10.155 31.112-12.705 0 .115 20.232 1.604 20.232 1.604l7.26-1.579a4.65 4.65 0 0 1 3.109.492c4.347 2.026 22.294 10.827 26.814 13.05a5.428 5.428 0 0 1 1.916 1.496c.25.297.45.631.593.991.326 1.054.869 2.205.85 3.087l-.243 10.494a4.029 4.029 0 0 1-.837 2.345c-.88 1.176-7.444 5.113-9.404 6.232.109-6.187-2.317-10.092-9.896-6.813-7.176 3.1-10.266 9.459-10.413 15.715L66.28 67.885c.07-6.09-2.375-9.906-9.889-6.66-7.023 3.03-10.113 9.159-10.394 15.269-.718.357-1.471.64-2.247.843a21.776 21.776 0 0 1-8.032 1.438c-9.576-.14-16.982-3.47-23.852-7.228-5.025-2.748-8.9-5.522-10.77-7.976a5.424 5.424 0 0 1-1.086-3.58C.181 56.67.386 49.154 4.612 44.2z" fill="url(#js7da2njkA)" transform="translate(73.54 96.933)"/>
        <path d="M145.376 29.5v.18a4.029 4.029 0 0 1-.836 2.345c-.881 1.176-7.444 5.112-9.404 6.23a14.432 14.432 0 0 0-.434-4.134l10.674-4.62zM65.852 63.897c.332 1.298.48 2.636.44 3.975l48.522-20.713c.036-1.607.274-3.202.709-4.749L65.852 63.897z" fill="url(#2udf24ye7B)" opacity=".2" style="mix-blend-mode:screen" transform="translate(73.54 96.933)"/>
        <path d="M12.254 64.613C1.484 59.014.603 53.703.686 53.263c.568-3.069 1.679-6.43 3.926-9.07 2.554-2.952 7.195-6.174 10.988-8.078 10.726-5.394 15.227-8.41 24.988-14.7 3.39-2.192 9.577-6.659 13.12-8.66C55.229 11.906 81.89.614 84.82.05c3.499.953 18.598 7.67 28.315 12.949a.64.64 0 0 1-.185 1.24c-8.792 2.505-27.83 10.73-31.003 13.657-3.901 3.598-17.238 19.595-17.238 19.595-4.546 3.515-14.959 10.379-19.664 13.754-5.274 4.007-5 5.56-5.53 8.749a1.38 1.38 0 0 1-1.276 1.042c-7.502.805-15.872-.85-25.985-6.423z" fill="url(#h38eohiliC)" transform="translate(73.54 96.933)"/>
        <path d="M84.794.044c3.499.952 18.598 7.67 28.315 12.948.6.32.473 1.01-.185 1.24-7.476 2.601-21.745 8.475-28.334 11.977-.638.345-10.451-2.978-18.215-6.73-6.863-3.323-11.881-7.12-11.588-7.247C59.333 9.912 81.168.274 84.794.044z" fill="url(#h3xz5p23yD)" transform="translate(73.54 96.933)"/>
        <path d="M38.743 63.002c-19.485.754-37.1-12.725-34.897-17.812.239-.343.494-.673.766-.99 2.554-2.953 7.195-6.174 10.988-8.079 4.967-2.499 8.6-4.473 12.04-6.531 13.114 14.59 37.075 17.895 37.075 17.895-3.44 2.665-14.16 9.963-19.153 13.357a13.047 13.047 0 0 1-6.819 2.16z" fill="url(#2xmi7mb87E)" transform="translate(73.54 96.933)"/>
        <path d="M80.855 26.356c-6.027 7.79-13.069 15.179-18.45 18.758a6.444 6.444 0 0 1-3.717 1.182 10.205 10.205 0 0 1-2.432-.339 33.89 33.89 0 0 1-2.324-.639 56.065 56.065 0 0 1-3.722-1.189 70.838 70.838 0 0 1-14.576-7.247 83.018 83.018 0 0 1-6.2-4.43 1.477 1.477 0 0 1 .135-2.504l9.577-6.257L54.59 13.58c.344.255.69.51 1.053.766.977.69 2.043 1.374 3.192 2.07 1.15.697 2.554 1.458 3.959 2.193a169.095 169.095 0 0 0 18.061 7.746z" fill="url(#cbbngqdmdF)" transform="translate(73.54 96.933)"/>
        <path d="M81.704 29.762a14.372 14.372 0 0 1 5.14-3.694c7.98-3.477 17.806-7.874 24.318-10.225a4.184 4.184 0 0 1 2.228-.154c4.182.863 14.39 5.164 12.284 6.078-6.627 2.87-50.003 21.423-56.63 24.126-.409.166-.926-.192-.69-.505 1.935-2.46 9.64-11.357 13.35-15.626z" fill="url(#w72vla1ggG)" transform="translate(73.54 96.933)"/>
        <path d="M116.378 17.063c3.78 1.362 8.479 3.509 8.485 4.257l-5.746 2.473a20.853 20.853 0 0 0-2.739-6.73z" fill="url(#4ynjuu4htH)" transform="translate(73.54 96.933)"/>
        <path d="M118.408 24.093a1205.875 1205.875 0 0 1-8.376 3.586c-.792.358-1.615.696-2.445 1.054-.639.281-1.335.563-2.005.857l-8.606 3.675c-.983.415-1.947.818-2.911 1.233a38 38 0 0 0-2.605-10.04c2.298-1.004 4.692-2.052 7.067-3.068 2.643-1.138 5.236-2.243 7.662-3.196.638-.255 1.277-.517 1.858-.747.772-.294 1.506-.588 2.215-.831.44-.173.855-.332 1.277-.48a2.71 2.71 0 0 1 1.564-.083c.753.176 1.497.39 2.228.64a21.045 21.045 0 0 1 3.077 7.4z" fill="url(#5w2vzmxp5I)" transform="translate(73.54 96.933)"/>
        <path d="M82.075 29.96a14.008 14.008 0 0 1 4.986-3.579l3.728-1.63a37.31 37.31 0 0 1 2.554 10.054C82.4 39.47 72.211 43.79 69.28 44.985h-.096c1.973-2.492 9.539-11.158 12.89-15.025z" fill="url(#5zrp0rki5J)" transform="translate(73.54 96.933)"/>
        <path d="M125.87 143.893c-5.39 5.855-15.324 9.964-23.56 12.143 7.828-2.179 17.583-7.528 23.56-12.143zM82.78 146.36c3.276-5.15 12.623-11.293 18.815-14.469-9.55 3.758-17.576 10.635-18.814 14.47z" fill="#8BA1F0"/>
        <path d="m87.444 41.758 4.207-1.821a.696.696 0 0 0 .434-.524v-.467c0-.192-.185-.255-.421-.153l-4.207 1.815a.696.696 0 0 0-.434.524v.473c-.007.185.185.255.42.153z" fill="url(#nsw4vkzk0K)" transform="translate(73.54 96.933)"/>
        <path d="m112.58 30.893 4.2-1.821a.71.71 0 0 0 .441-.524v-.467c0-.185-.185-.255-.421-.153l-4.201 1.821a.71.71 0 0 0-.44.525v.466c-.007.153.178.25.42.153z" fill="url(#ln3ruyqryL)" transform="translate(73.54 96.933)"/>
        <path d="M81.551 42.193c.639.639 0 2.556-1.124 2.908-.22.065-.447.102-.676.108-2.273.147-5.37.103-6.442-.92-.326-.307-.288-.498-.128-.856.23-.537 1.054-2.812 1.647-3.049.594-.236 6.334 1.432 6.723 1.809z" fill="url(#yit0zztr6M)" transform="translate(73.54 96.933)"/>
        <path d="M70.806 43.49c.204 0 2.158-.345 2.503-.377 1.155-.096 2.72 1.566 2.234 2.007-.127.121-5.107.262-5.267.268-.804.032-.543-1.821.53-1.898z" fill="url(#w55ljx5j4N)" transform="translate(73.54 96.933)"/>
        <path d="M145.383 17.869a7.267 7.267 0 0 1 .083 6.576c-1.124.172-1.443-3.63-1.52-5.113a.984.984 0 0 1 .6-.92l.837-.543z" fill="url(#c0rofzjx1O)" transform="translate(73.54 96.933)"/>
        <path d="M100.376 160.798c-1.762-.211-3.933 3.662-2.024 4.576 1.91.914 6.768 1.987 13.459 1.54 2.879-.677 3.639-5.24.638-5.528a70.75 70.75 0 0 1-12.073-.588z" fill="#F0FDFF"/>
        <path d="M38.897 64.453c4.61-.102 2.553 5.317-.639 5.528 1.06-.997 2.005-4.474.639-5.528z" fill="url(#00lmm7w45P)" transform="translate(73.54 96.933)"/>
        <path d="M78.33 148.495c.205 1.048-.925 4.314-1.423 4.474-.639.198-2.452-2.665-2.4-4.103.044-1.247.925-4.142 1.915-5.113.568 2.269 1.78 4.116 1.909 4.742z" fill="#F0FDFF"/>
        <path fill="#FFF" d="m79.92 160.664 9.737 5.47-.064 2.819-9.737-5.471z"/>
        <path d="M55.605 14.347 50.21 44.155a70.838 70.838 0 0 1-14.576-7.273c1.08-4.097 2.299-8.711 3.486-13.191l15.444-10.11c.332.255.677.51 1.04.766z" fill="url(#y6b8ifrakQ)" opacity=".31" transform="translate(73.54 96.933)"/>
        <path d="m62.768 18.61-4.08 27.686a10.205 10.205 0 0 1-2.432-.339 33.89 33.89 0 0 1-2.324-.639l4.878-28.926a63.577 63.577 0 0 0 3.958 2.218z" fill="url(#3bd89erqhR)" opacity=".31" transform="translate(73.54 96.933)"/>
        <path d="M98.527 21.39c2.643-1.138 5.236-2.243 7.662-3.196l-.607 11.421-8.606 3.675c.306-2.397.938-7.241 1.551-11.9z" fill="url(#3wbiibfp4S)" opacity=".31" transform="translate(73.54 96.933)"/>
        <path d="m110.243 16.603-.21 11.095c-.793.358-1.616.697-2.446 1.054l.44-11.299c.773-.313 1.507-.62 2.216-.85z" fill="url(#hjl3amkuiT)" opacity=".31" transform="translate(73.54 96.933)"/>
        <path d="m106.278 2.786 26.26 12.782c1.627.946-2.337.332-6.96-.326-3.984-.569-8.3-1.278-8.3-1.278a20.022 20.022 0 0 1-3.696-1.426C104.197 7.81 94.99 3.406 88.548.977l14.946 1.17c.963.01 1.913.228 2.784.639z" fill="url(#8rrgmndrcU)" transform="translate(73.54 96.92)"/>
        <path d="m135.653 16.533-30.6-14.872L112.31.082a4.65 4.65 0 0 1 3.11.492c4.347 2.026 22.294 10.827 26.814 13.05a5.428 5.428 0 0 1 1.916 1.496l.095.135a66.972 66.972 0 0 1-8.593 1.278z" fill="url(#olo3e4vevV)" transform="translate(73.54 96.92)"/>
        <path d="M36.726 77.28a28.88 28.88 0 0 1-10.113-.997c-.728-.243-.492-.959-.421-1.592a.638.638 0 0 1 .69-.473c3.268.275 6.56.018 9.748-.76.485-.115.977.172.97.575l-.063 2.492a.85.85 0 0 1-.811.755z" fill="url(#gc8g0n26sW)" transform="translate(73.54 96.92)"/>
        <path d="M.341 55.595c.074 1.084.27 2.156.587 3.195.098.337.145.686.14 1.036 0 .453 0 1.457-.044 1.98 0 .199-.128.18-.185.103a5.94 5.94 0 0 1-.81-1.808v-.135c.044-1.06.108-2.614.312-4.371z" fill="url(#cuvjwfoduX)" transform="translate(73.54 96.92)"/>
        <path d="M247.225 59.052c0 1.49 1.423 3.305 3.192 4.059l25.39 10.526c1.756.748 3.193.147 3.193-1.349V60.676c0-1.496-1.417-3.31-3.192-4.059l-25.404-10.532c-1.756-.748-3.192-.14-3.192 1.355l.013 11.612z" fill="url(#qx3q2tzkfY)"/>
        <g opacity=".15" transform="translate(253.411 52.885)" fill="url(#5h68rl4n4Z)">
            <path d="M19.409 8.365c0 .358-.345.505-.76.326L.773 1.374a1.278 1.278 0 0 1-.76-.972c0-.358.345-.505.766-.326l17.876 7.312c.405.173.692.542.76.977h-.006zm-5.3 2.928c0 .364-.338.504-.76.332L.767 6.557A1.233 1.233 0 0 1 0 5.585c0-.358.345-.505.766-.326l12.584 5.062c.409.16.7.53.76.965v.007zM8.818 6.448a1.24 1.24 0 0 0-.76-.971l-7.29-2.8C.344 2.492 0 2.64 0 2.997c.063.438.355.809.766.971l7.291 2.806c.422.173.766 0 .76-.326z"/>
        </g>
    </g>
</svg>
