<svg width="253" height="149" viewBox="0 0 253 149" fill="none" xmlns="http://www.w3.org/2000/svg">
<rect x="5.53016" y="38.5943" width="228.463" height="76.6688" rx="7.97562" transform="rotate(-9.65013 5.53016 38.5943)" fill="#4E4E4E" stroke="#888888" stroke-width="0.514556"/>
<rect x="18.8291" y="56.9497" width="93.6492" height="15.4367" rx="5.14556" transform="rotate(-9.65013 18.8291 56.9497)" fill="#6B6B6B"/>
<rect x="22.2794" y="77.2407" width="145.619" height="15.4367" rx="5.14556" transform="rotate(-9.65013 22.2794 77.2407)" fill="#6B6B6B"/>
<circle cx="217.552" cy="48.4733" r="10.8057" transform="rotate(-9.65013 217.552 48.4733)" fill="url(#paint0_linear_24_1050)" stroke="white" stroke-width="0.514556"/>
<circle cx="204.871" cy="50.63" r="10.8057" transform="rotate(-9.65013 204.871 50.63)" fill="url(#paint1_linear_24_1050)" stroke="white" stroke-width="0.514556"/>
<rect x="0.823476" y="64.1063" width="251.353" height="84.3505" rx="8.77471" fill="#4E4E4E" stroke="#888888" stroke-width="0.56611"/>
<rect x="11.8626" y="86.4678" width="103.032" height="16.9833" rx="5.66111" fill="#6B6B6B"/>
<rect x="11.8626" y="109.112" width="160.209" height="16.9833" rx="5.66111" fill="#6B6B6B"/>
<circle cx="228.966" cy="113.924" r="11.8883" fill="url(#paint2_linear_24_1050)" stroke="white" stroke-width="0.56611"/>
<circle cx="214.813" cy="113.924" r="11.8883" fill="url(#paint3_linear_24_1050)" stroke="white" stroke-width="0.56611"/>
<defs>
<linearGradient id="paint0_linear_24_1050" x1="206.489" y1="37.4103" x2="228.615" y2="59.5362" gradientUnits="userSpaceOnUse">
<stop stop-color="#17EAD9"/>
<stop offset="1" stop-color="#6176F4"/>
</linearGradient>
<linearGradient id="paint1_linear_24_1050" x1="193.808" y1="39.5671" x2="215.934" y2="61.693" gradientUnits="userSpaceOnUse">
<stop stop-color="#17EAD9"/>
<stop offset="1" stop-color="#6176F4"/>
</linearGradient>
<linearGradient id="paint2_linear_24_1050" x1="216.795" y1="101.752" x2="241.137" y2="126.095" gradientUnits="userSpaceOnUse">
<stop stop-color="#17EAD9"/>
<stop offset="1" stop-color="#6176F4"/>
</linearGradient>
<linearGradient id="paint3_linear_24_1050" x1="202.642" y1="101.752" x2="226.985" y2="126.095" gradientUnits="userSpaceOnUse">
<stop stop-color="#17EAD9"/>
<stop offset="1" stop-color="#6176F4"/>
</linearGradient>
</defs>
</svg>
