<svg xmlns="http://www.w3.org/2000/svg" xmlns:xlink="http://www.w3.org/1999/xlink" width="186.415" height="200" viewBox="0 0 186.415 200">
  <defs>
    <clipPath id="clip-path">
      <path id="Clip_88" data-name="Clip 88" d="M0,200H186V0H0Z" fill="none"/>
    </clipPath>
  </defs>
  <g id="Group_95" data-name="Group 95" transform="translate(0.083)">
    <path id="Fill_1" data-name="Fill 1" d="M0,0,12.254.093,9.377,14.186s-1.532,3.106-4.038,3.2S.186,16.55.093,16.225,0,0,0,0" transform="translate(124.792 161.718)" fill="#fff"/>
    <path id="Fill_3" data-name="Fill 3" d="M7.032,15.437.162,7.7S-.627,4.5,1.276,2.781A18.593,18.593,0,0,1,5.593,0l9.469,7.371Z" transform="translate(21.907 81.472)" fill="#fff"/>
    <path id="Fill_5" data-name="Fill 5" d="M24.563,8.914,20.814,4.366A11.98,11.98,0,0,0,6.474,1.136,6.694,6.694,0,0,0,2.633,7.173v5.136A8.447,8.447,0,0,0,3.911,16.77L.019,29.017a.419.419,0,0,0,.276.527L11.1,32.85a.417.417,0,0,0,.371-.064.419.419,0,0,0,.17-.336V26.393l2.835,2.467A3.254,3.254,0,0,0,19.636,27.6l1.775-4.5h1.631a.419.419,0,0,0,.418-.4l.238-4.994.957-8.488a.418.418,0,0,0-.093-.312" transform="translate(127.868 2.479)" fill="#fff"/>
    <path id="Fill_7" data-name="Fill 7" d="M45.1,0A72.366,72.366,0,0,1,57.941,3.281c6.571,2.386-.9,26.547-.9,26.547L41.216,48.918,0,41.163Z" transform="translate(79.135 31.233)" fill="#484848"/>
    <path id="Fill_9" data-name="Fill 9" d="M96.569,7.159,60.436,53.087a23.763,23.763,0,0,1-35.355,2.22L0,28.436l16.725-17.3,15.929,9.147L54.158,0Z" transform="translate(24.976 72.396)" fill="#080717"/>
    <path id="Fill_11" data-name="Fill 11" d="M26.807,7.593,19.2,0,.479,18.7c-1.573,1.571,1,4.661,3.8,4.641l16.751-6.749s-2.672-6.187,5.775-9" transform="translate(0.837 73.121)" fill="#fff"/>
    <path id="Fill_13" data-name="Fill 13" d="M24.831,5.423,19.4,0,.675,18.7C-.9,20.272.461,22.15,2.865,21.733L19.123,14.76s-1.935-5.72,5.708-9.336" transform="translate(2.613 75.089)" fill="#6176f4"/>
    <path id="Stroke_15" data-name="Stroke 15" d="M26.807,7.593,19.2,0,.479,18.7c-1.573,1.571,1,4.661,3.8,4.641l16.751-6.749S18.36,10.405,26.807,7.593Z" transform="translate(0.837 73.121)" fill="none" stroke="#000" stroke-linecap="round" stroke-linejoin="round" stroke-miterlimit="10" stroke-width="1.673"/>
    <path id="Fill_17" data-name="Fill 17" d="M0,2.284V13.022H26.481c2.224,0,2.592-4,.6-5.965L10.456,0S7.965,6.262,0,2.284" transform="translate(124.375 176.091)" fill="#fff"/>
    <path id="Fill_19" data-name="Fill 19" d="M0,2.571v7.67H26.481c2.224,0,2.592-2.288.6-3.69L10.646,0S7.965,5.412,0,2.571" transform="translate(124.375 176.088)" fill="#6176f4"/>
    <path id="Stroke_21" data-name="Stroke 21" d="M0,2.284V13.022H26.481c2.224,0,2.592-4,.6-5.965L10.456,0S7.965,6.262,0,2.284Z" transform="translate(124.375 176.091)" fill="none" stroke="#000" stroke-linecap="round" stroke-linejoin="round" stroke-miterlimit="10" stroke-width="1.673"/>
    <path id="Stroke_23" data-name="Stroke 23" d="M0,0,10.473,8.187" transform="translate(27.644 80.714)" fill="none" stroke="#000" stroke-linecap="round" stroke-linejoin="round" stroke-miterlimit="10" stroke-width="1.673"/>
    <path id="Stroke_25" data-name="Stroke 25" d="M0,0,7.488,8.335" transform="translate(21.869 89.713)" fill="none" stroke="#000" stroke-linecap="round" stroke-linejoin="round" stroke-miterlimit="10" stroke-width="1.673"/>
    <path id="Stroke_27" data-name="Stroke 27" d="M62.143,6.545H14.615A17.293,17.293,0,0,1,4.43,3.229L0,0" transform="translate(87.777 184.267)" fill="none" stroke="#000" stroke-linecap="round" stroke-linejoin="round" stroke-miterlimit="10" stroke-width="1.673"/>
    <path id="Stroke_29" data-name="Stroke 29" d="M0,6.545H47.528A17.293,17.293,0,0,0,57.714,3.229L62.143,0" transform="translate(123.019 184.267)" fill="none" stroke="#000" stroke-linecap="round" stroke-linejoin="round" stroke-miterlimit="10" stroke-width="1.673"/>
    <path id="Stroke_31" data-name="Stroke 31" d="M6.57,3.281A3.285,3.285,0,1,1,3.285,0,3.284,3.284,0,0,1,6.57,3.281Z" transform="translate(106.315 192.601)" fill="none" stroke="#000" stroke-linecap="round" stroke-linejoin="round" stroke-miterlimit="10" stroke-width="1.673"/>
    <path id="Stroke_33" data-name="Stroke 33" d="M6.57,3.281A3.285,3.285,0,1,1,3.285,0,3.284,3.284,0,0,1,6.57,3.281Z" transform="translate(157.089 192.601)" fill="none" stroke="#000" stroke-linecap="round" stroke-linejoin="round" stroke-miterlimit="10" stroke-width="1.673"/>
    <path id="Fill_35" data-name="Fill 35" d="M25.088,0l29.39,29.352a19.915,19.915,0,0,1,5.417,18.2l-7.33,34.773H26.88v-34L0,31.618Z" transform="translate(96.457 79.555)" fill="#080717"/>
    <path id="Stroke_37" data-name="Stroke 37" d="M0,14.317,10.752,0" transform="translate(97.353 98.049)" fill="none" stroke="#fff" stroke-linecap="round" stroke-linejoin="round" stroke-miterlimit="10" stroke-width="1.673"/>
    <path id="Stroke_39" data-name="Stroke 39" d="M.488,17.1.349,0" transform="translate(123.886 160.98)" fill="none" stroke="#000" stroke-linecap="round" stroke-linejoin="round" stroke-miterlimit="10" stroke-width="1.673"/>
    <path id="Stroke_41" data-name="Stroke 41" d="M0,14.325,2.785,0" transform="translate(134.911 161.532)" fill="none" stroke="#000" stroke-linecap="round" stroke-linejoin="round" stroke-miterlimit="10" stroke-width="1.673"/>
    <path id="Fill_43" data-name="Fill 43" d="M63.925,28.006c-7.573-4.889-32.738-5.218-37.365-5.237l5.669-10.746a.419.419,0,0,0-.146-.549L14.129.066A.417.417,0,0,0,13.6.137,86.665,86.665,0,0,0,5.278,11.173c-5.123,8.2-6.525,14.411-4.168,18.448C6.5,38.856,40.142,40.734,43.23,40.887c.681.756,3.973,4.171,7.187,3.685a.012.012,0,0,1,0,.005,5.02,5.02,0,0,0,.774,3.523,3.567,3.567,0,0,0,2.5,1.353,6.312,6.312,0,0,0,.807.054,3.624,3.624,0,0,0,2.24-.675.412.412,0,0,0,.143.028h.015c2.754-.1,4.3-.667,5.189-1.5a.4.4,0,0,0,.177.079,2.836,2.836,0,0,0,.488.041,4.563,4.563,0,0,0,3.425-2.038.413.413,0,0,0,.354.433,3.727,3.727,0,0,0,.527.038c2.135,0,3.336-1.9,3.756-3.785.7-3.159.743-9.194-6.885-14.119" transform="translate(103.046 49.309)" fill="#fff"/>
    <path id="Fill_45" data-name="Fill 45" d="M0,19.6S20.032,32.164,21.519,35.324s10.713-17.442,8.12-26.192C27.857,3.119,28.506-.05,18.015,0S0,19.6,0,19.6" transform="translate(112.347 33.297)" fill="#484848"/>
    <path id="Fill_47" data-name="Fill 47" d="M5.6,2.874C5.3,3.96,3.817,4.5,2.284,4.077S-.247,2.432.053,1.346,1.838-.278,3.37.144,5.9,1.788,5.6,2.874" transform="translate(93.281 8.645)" fill="#080717"/>
    <path id="Fill_49" data-name="Fill 49" d="M5.6,2.874C5.3,3.959,3.817,4.5,2.284,4.077S-.247,2.432.053,1.346,1.838-.278,3.371.144,5.9,1.788,5.6,2.874" transform="translate(103.126 11.356)" fill="#080717"/>
    <path id="Stroke_51" data-name="Stroke 51" d="M0,10.189,2.813,0l9.932,2.734L9.932,12.924" transform="translate(97.964 1.171)" fill="none" stroke="#000" stroke-linecap="round" stroke-linejoin="round" stroke-miterlimit="10" stroke-width="1.623"/>
    <path id="Stroke_53" data-name="Stroke 53" d="M0,0,9.4,2.587" transform="translate(100.541 4.474)" fill="none" stroke="#000" stroke-linecap="round" stroke-linejoin="round" stroke-miterlimit="10" stroke-width="1.623"/>
    <path id="Fill_55" data-name="Fill 55" d="M5.546,1.245c.349,1.071-.593,2.338-2.1,2.829S.422,4.095.073,3.024.666.686,2.177.195,5.2.174,5.546,1.245" transform="translate(73.412 17.516)" fill="#080717"/>
    <path id="Stroke_57" data-name="Stroke 57" d="M3.275,10.051,0,0" transform="translate(74.828 9.084)" fill="none" stroke="#000" stroke-linecap="round" stroke-linejoin="round" stroke-miterlimit="10" stroke-width="1.623"/>
    <path id="Stroke_59" data-name="Stroke 59" d="M13.475,0S-4.437,19.605,1.042,28.993,43,40.06,43,40.06s4.342,5.08,7.926,3.389" transform="translate(103.475 49.727)" fill="none" stroke="#000" stroke-linecap="round" stroke-linejoin="round" stroke-miterlimit="10" stroke-width="1.673"/>
    <path id="Stroke_61" data-name="Stroke 61" d="M5.992,0,0,11.359s29.667-.1,37.83,5.17,7.134,11.744,6.7,13.677-1.65,3.723-3.816,3.424" transform="translate(128.912 61.137)" fill="none" stroke="#000" stroke-linecap="round" stroke-linejoin="round" stroke-miterlimit="10" stroke-width="1.673"/>
    <path id="Stroke_63" data-name="Stroke 63" d="M3.26,0A8.58,8.58,0,0,1,4.507,7.833C3.78,9.949,1.838,11.819,0,11.509" transform="translate(165.374 84.825)" fill="none" stroke="#000" stroke-linecap="round" stroke-linejoin="round" stroke-miterlimit="10" stroke-width="1.673"/>
    <path id="Stroke_65" data-name="Stroke 65" d="M4.53,0A11.262,11.262,0,0,1,6.023,5.27C5.912,8.151,6.049,10.514,0,10.738" transform="translate(159.923 87.012)" fill="none" stroke="#000" stroke-linecap="round" stroke-linejoin="round" stroke-miterlimit="10" stroke-width="1.673"/>
    <path id="Stroke_67" data-name="Stroke 67" d="M5.647,0S8.111,3.207,7.439,5.692C6.854,7.857,6.045,9.868,2.959,9.47S-.09,6,.046,5.07,2.063,3.306,2.66,4.8" transform="translate(153.829 88.876)" fill="none" stroke="#000" stroke-linecap="round" stroke-linejoin="round" stroke-miterlimit="10" stroke-width="1.673"/>
    <path id="Stroke_69" data-name="Stroke 69" d="M0,14.317C1.022,13.325,7.466,3.878,12.842,0" transform="translate(110.494 36.901)" fill="none" stroke="#000" stroke-linecap="round" stroke-linejoin="round" stroke-miterlimit="10" stroke-width="1.673"/>
    <path id="Stroke_71" data-name="Stroke 71" d="M7.182,16.29l-.548,2.733A3.6,3.6,0,0,0,7.8,22.444l6.529,5.68a2.836,2.836,0,0,0,4.5-1.1l1.879-4.761h1.915l.24-5.021.957-8.487L20.072,4.21A11.572,11.572,0,0,0,6.232,1.095a6.25,6.25,0,0,0-3.6,5.658v5.135a8.021,8.021,0,0,0,1.29,4.361l.027.042L0,28.723" transform="translate(128.287 2.899)" fill="none" stroke="#000" stroke-linecap="round" stroke-linejoin="round" stroke-miterlimit="10" stroke-width="1.673"/>
    <path id="Stroke_73" data-name="Stroke 73" d="M0,.418H35.072" transform="translate(118.711 13.392)" fill="none" stroke="#000" stroke-linecap="round" stroke-linejoin="round" stroke-miterlimit="10" stroke-width="1.673"/>
    <path id="Fill_75" data-name="Fill 75" d="M25.01,12.792c0-.1.008-.2.008-.3A12.509,12.509,0,0,0,0,12.493c0,.1.006.2.008.3Z" transform="translate(128.167 0.899)" fill="#080717"/>
    <path id="Fill_77" data-name="Fill 77" d="M8.414.526,8.291.466A5.941,5.941,0,0,0,.568,3.732a5.925,5.925,0,0,0,2.726,7.92c.042.019.084.035.126.053Z" transform="translate(128.161 10.449)" fill="#080717"/>
    <path id="Fill_79" data-name="Fill 79" d="M0,1.088C.033,1.666.4,2.118.812,2.1s.73-.509.7-1.087S1.118-.021.7,0-.029.51,0,1.088" transform="translate(147.076 18.543)"/>
    <path id="Stroke_81" data-name="Stroke 81" d="M4.13.418H0" transform="translate(144.445 16.21)" fill="none" stroke="#000" stroke-linecap="round" stroke-linejoin="round" stroke-miterlimit="10" stroke-width="1.673"/>
    <path id="Stroke_83" data-name="Stroke 83" d="M2.064,1.836C.13,2.564,0,0,0,0" transform="translate(145.181 26.406)" fill="none" stroke="#000" stroke-linecap="round" stroke-linejoin="round" stroke-miterlimit="10" stroke-width="1.673"/>
    <path id="Stroke_85" data-name="Stroke 85" d="M.419,0V6.922" transform="translate(138.671 28.006)" fill="none" stroke="#000" stroke-linecap="round" stroke-linejoin="round" stroke-miterlimit="10" stroke-width="1.673"/>
    <path id="Clip_88-2" data-name="Clip 88" d="M0,200H186V0H0Z" fill="none"/>
    <g id="Group_95-2" data-name="Group 95" clip-path="url(#clip-path)">
      <path id="Fill_87" data-name="Fill 87" d="M0,13.183H4.13V0H0Z" transform="translate(134.361 0.836)" fill="#fff"/>
      <path id="Stroke_89" data-name="Stroke 89" d="M0,13.183H4.13V0H0Z" transform="translate(134.361 0.836)" fill="none" stroke="#6176f4" stroke-linecap="round" stroke-linejoin="round" stroke-miterlimit="10" stroke-width="1.673"/>
      <path id="Fill_90" data-name="Fill 90" d="M11.581,5.783A5.791,5.791,0,1,1,5.791,0a5.787,5.787,0,0,1,5.791,5.783" transform="translate(130.636 11.24)" fill="#fff"/>
      <path id="Stroke_91" data-name="Stroke 91" d="M11.581,5.783A5.791,5.791,0,1,1,5.791,0,5.787,5.787,0,0,1,11.581,5.783Z" transform="translate(130.636 11.24)" fill="none" stroke="#6176f4" stroke-linecap="round" stroke-linejoin="round" stroke-miterlimit="10" stroke-width="1.673"/>
      <path id="Fill_92" data-name="Fill 92" d="M4.886,2.44A2.443,2.443,0,1,1,2.443,0,2.441,2.441,0,0,1,4.886,2.44" transform="translate(133.984 14.583)" fill="#fff"/>
      <path id="Stroke_93" data-name="Stroke 93" d="M4.886,2.44A2.443,2.443,0,1,1,2.443,0,2.441,2.441,0,0,1,4.886,2.44Z" transform="translate(133.984 14.583)" fill="none" stroke="#6176f4" stroke-linecap="round" stroke-linejoin="round" stroke-miterlimit="10" stroke-width="1.673"/>
      <path id="Fill_94" data-name="Fill 94" d="M16.131,6.276,2.306,0,0,2.988l13.8,7.143Z" transform="translate(125.024 28.186)" fill="#080717"/>
    </g>
  </g>
</svg>
