<svg width="3520" height="743" viewBox="0 0 3520 743" fill="none" xmlns="http://www.w3.org/2000/svg">
<path d="M1371.37 128.055L1234.52 489.51L1096.99 128.055H1016.96L1206.61 606.273H1261.75L1450.72 128.055H1371.37Z" fill="black"/>
<path d="M1607.75 612.703C1708.96 612.703 1776.88 532.492 1776.88 436.375C1776.88 340.596 1708.96 261.739 1607.75 261.739C1506.54 261.739 1438.95 340.596 1438.95 436.375C1438.95 532.831 1506.54 612.703 1607.75 612.703ZM1607.75 552.122C1542.18 552.122 1511.25 498.648 1511.25 436.375C1511.25 374.44 1542.18 322.32 1607.75 322.32C1673.32 322.32 1704.59 374.779 1704.59 436.375C1704.59 498.31 1673.32 552.122 1607.75 552.122Z" fill="black"/>
<path d="M1917.43 612.703C1934.92 612.703 1957.45 609.657 1973.92 606.273L1973.59 547.384C1964.51 548.737 1955.09 549.753 1949.38 549.753C1927.19 549.753 1919.12 537.907 1919.12 518.616V128.055H1849.85V537.569C1849.85 593.412 1875.74 612.703 1917.43 612.703Z" fill="black"/>
<path d="M2155.16 612.703C2177.69 612.703 2199.88 607.626 2211.65 603.227L2211.32 539.938C2200.89 544.676 2183.74 550.768 2167.27 550.768C2141.04 550.768 2124.23 537.907 2124.23 500.34V327.058H2211.65V268.169H2124.23V129.408L2055.97 179.498V268.169H1999.82V327.058H2054.96V512.186C2054.96 574.797 2091.61 612.703 2155.16 612.703Z" fill="black"/>
<path d="M2425.17 612.703C2480.65 612.703 2523.02 593.75 2560 553.137L2512.26 510.832C2486.37 538.923 2459.13 549.076 2425.5 549.076C2367.67 549.076 2338.75 513.878 2332.7 459.05H2569.08C2570.43 454.312 2571.77 440.436 2571.77 427.575C2571.77 354.81 2534.79 261.739 2419.45 261.739C2311.18 261.739 2259.4 348.042 2259.4 438.744C2259.4 531.477 2314.21 612.703 2425.17 612.703ZM2332.7 408.284C2339.76 357.518 2366.33 320.628 2418.78 320.628C2465.18 320.628 2494.44 348.719 2501.16 386.962C2502.84 393.731 2503.51 400.839 2503.18 408.284H2332.7Z" fill="black"/>
<path d="M2754.02 612.703C2791.01 612.703 2830.35 596.796 2855.23 560.921V606.273H2924.16V268.169H2855.23V458.035C2855.23 519.293 2823.29 548.061 2773.52 548.061C2727.12 548.061 2702.91 514.555 2702.91 464.466V268.169H2633.98V474.957C2634.31 546.368 2668.95 612.703 2754.02 612.703Z" fill="black"/>
<path d="M3030.41 606.273H3100.02V415.73C3100.02 365.979 3129.27 327.058 3177.69 327.058C3224.09 327.058 3240.23 361.579 3240.23 408.623V606.273H3309.84V415.73C3309.84 365.979 3339.09 327.058 3386.84 327.058C3434.58 327.058 3450.05 362.595 3450.05 413.699V606.273H3519.65V404.9C3519.65 328.412 3484.35 261.739 3400.62 261.739C3356.91 261.739 3316.56 280.692 3292.02 326.381C3273.86 279 3233.17 261.739 3191.48 261.739C3153.48 261.739 3117.84 276.292 3096.99 315.89V268.169H3030.08L3030.41 606.273Z" fill="black"/>
<path d="M386.746 416.133H46.1927C11.8981 416.133 -10.4071 380.042 4.92993 349.368L166.396 26.4359C174.211 10.8067 190.185 0.934082 207.659 0.934082H519.701C553.995 0.934082 576.3 37.0247 560.963 67.6987L386.746 416.133Z" fill="#6D3EF9"/>
<path d="M323.69 734.974C284.328 761.215 235.681 718.271 256.838 675.957L386.748 416.136H649.579C695.224 416.136 713.148 475.335 675.169 500.654L323.69 734.974Z" fill="#BFAAFF"/>
</svg>
